<?xml version="1.0" encoding="UTF-8"?>
<svg version="1.1" xmlns="http://www.w3.org/2000/svg" width="1024" height="1536">
<path d="M0 0 C337.92 0 675.84 0 1024 0 C1024 506.88 1024 1013.76 1024 1536 C686.08 1536 348.16 1536 0 1536 C0 1029.12 0 522.24 0 0 Z " fill="#00CCD6" transform="translate(0,0)"/>
<path d="M0 0 C1.31239655 -0.00845947 2.62479309 -0.01691895 3.97695923 -0.02563477 C5.43475465 -0.01980163 6.89254886 -0.01365711 8.3503418 -0.00723267 C9.88284683 -0.01129695 11.41534893 -0.01663802 12.94784546 -0.02316284 C17.1130985 -0.03685941 21.27812906 -0.03152821 25.44338608 -0.02202559 C29.79820108 -0.01444107 34.15299677 -0.02147123 38.5078125 -0.02618408 C45.82156807 -0.03164517 53.13523282 -0.02444079 60.44897461 -0.01016235 C68.90996612 0.00616486 77.37074077 0.0008766 85.83172703 -0.01564157 C93.09039195 -0.02924641 100.34899151 -0.03118102 107.60766506 -0.02332556 C111.94548028 -0.01864351 116.2831935 -0.01803874 120.6210022 -0.02793503 C124.69876911 -0.03658788 128.77625588 -0.0306138 132.85399246 -0.01325226 C134.35240844 -0.00927838 135.85084791 -0.01043683 137.34925461 -0.01704025 C139.39086833 -0.02520945 141.43253344 -0.01315971 143.47412109 0 C145.18972481 0.00169662 145.18972481 0.00169662 146.93998718 0.00342751 C149.73706055 0.38095093 149.73706055 0.38095093 152.73706055 3.38095093 C152.73706055 14.27095093 152.73706055 25.16095093 152.73706055 36.38095093 C189.03706055 36.38095093 225.33706055 36.38095093 262.73706055 36.38095093 C262.73706055 25.82095093 262.73706055 15.26095093 262.73706055 4.38095093 C265.73706055 0.38095093 265.73706055 0.38095093 268.51851654 -0.11962032 C269.65487801 -0.11982961 270.79123947 -0.12003889 271.96203613 -0.12025452 C273.26601852 -0.13008865 274.57000092 -0.13992279 275.91349792 -0.15005493 C277.36184952 -0.14068256 278.81019853 -0.13090322 280.25854492 -0.12075806 C281.78119913 -0.12454034 283.30384991 -0.13003963 284.82649231 -0.13713074 C288.96495964 -0.15111473 293.10301259 -0.13989519 297.24145699 -0.12341952 C301.56824206 -0.10958923 305.89500257 -0.11602679 310.22180176 -0.11955261 C317.48851211 -0.12225634 324.75505743 -0.1087652 332.02172852 -0.08560181 C340.42819718 -0.05899099 348.83438987 -0.05724433 357.24088621 -0.06899017 C365.32097124 -0.07976193 373.40095624 -0.07358564 381.48103333 -0.05943489 C384.92277892 -0.05366984 388.36445144 -0.05376183 391.80619812 -0.05850029 C395.85771692 -0.06326565 399.90893276 -0.05318698 403.96039391 -0.03154564 C405.44912888 -0.02597153 406.93789294 -0.02551819 408.42663002 -0.0304985 C410.45512179 -0.03643444 412.48364302 -0.02213652 414.51208496 -0.00672913 C415.64844643 -0.00429923 416.78480789 -0.00186934 417.95560455 0.00063419 C420.73706055 0.38095093 420.73706055 0.38095093 422.60483551 1.69456387 C424.49370792 4.50793567 424.10166221 7.6248812 424.0300293 10.89266968 C424.02578445 11.62089432 424.02153961 12.34911896 424.01716614 13.09941101 C424.00038788 15.4228022 423.96273909 17.74532243 423.92456055 20.06845093 C423.90951252 21.64461027 423.89582432 23.22078321 423.88354492 24.79696655 C423.8504874 28.6586297 423.79871248 32.5196427 423.73706055 36.38095093 C424.62080022 36.37542017 424.62080022 36.37542017 425.52239323 36.36977768 C439.9230643 36.28106189 454.32371081 36.21506521 468.72459507 36.17370224 C475.68905576 36.15316268 482.65333295 36.12520912 489.61767578 36.07919312 C496.34801164 36.03474486 503.07811821 36.0117632 509.8086071 36.00144196 C512.36683068 35.99409355 514.92504474 35.97974472 517.48318672 35.9580307 C541.16123516 35.76517556 559.92776763 38.17759549 577.73706055 55.38095093 C588.33137815 67.57099649 595.35724992 81.15249217 595.23706055 97.50595093 C595.23206543 98.41320923 595.22707031 99.32046753 595.22192383 100.25521851 C594.79725074 116.91851179 587.9943844 130.63219997 576.64331055 142.70126343 C561.19898784 156.94159324 542.42441881 161.85723478 521.84594727 161.76571655 C520.28406378 161.76983111 518.72218337 161.77529718 517.16030884 161.78199768 C513.82102477 161.79364404 510.48190562 161.79623551 507.14260483 161.79164124 C501.85443572 161.78478286 496.56648042 161.80078128 491.27835083 161.82003784 C479.10304918 161.86095302 466.92775439 161.87242613 454.75239563 161.88356781 C443.57993253 161.8940951 432.40757345 161.91095071 421.2351743 161.95166349 C415.98597878 161.96994334 410.73703144 161.97394002 405.4878118 161.96672821 C402.21610503 161.96519961 398.94452103 161.97603188 395.67284775 161.99010658 C394.16446396 161.99408713 392.6560564 161.99302227 391.14768219 161.98633385 C374.18691532 161.91694261 360.17969858 166.42705809 347.73706055 178.38095093 C335.20343603 192.84620234 331.70870152 207.79874238 332.73706055 226.38095093 C333.06645516 229.55891302 333.69522612 232.36454025 334.73706055 235.38095093 C335.05545898 236.31036499 335.37385742 237.23977905 335.7019043 238.19735718 C341.15926775 252.58495175 349.98417529 262.67805471 363.54956055 269.63095093 C364.50862305 270.12534668 364.50862305 270.12534668 365.48706055 270.62973022 C378.4970815 276.97406305 391.1023261 276.82463439 405.28271484 276.81332397 C407.57002794 276.82234937 409.85733621 276.83267849 412.14463806 276.84420776 C418.32975272 276.87171232 424.51477543 276.88105343 430.6999433 276.88706183 C437.17286789 276.8964625 443.64572427 276.9226673 450.11860657 276.94706726 C460.97505951 276.98573808 471.83148728 277.01411037 482.68798828 277.03451538 C493.86542399 277.05555201 505.04281578 277.08285042 516.22021484 277.11849976 C516.91030786 277.12069858 517.60040088 277.12289741 518.3114058 277.12516286 C521.77373369 277.13623318 525.23606116 277.14742587 528.69838846 277.15867937 C557.37790602 277.25173751 586.05745141 277.32317317 614.73706055 277.38095093 C614.73706055 281.67095093 614.73706055 285.96095093 614.73706055 290.38095093 C585.24148586 290.42662032 555.74591284 290.46199308 526.25031019 290.48308159 C522.76452965 290.48558287 519.27874918 290.48817152 515.79296875 290.49081421 C514.75207701 290.49160114 514.75207701 290.49160114 513.69015715 290.49240397 C502.46845426 290.50109592 491.24677194 290.5168592 480.02508124 290.53525652 C468.50229183 290.55398929 456.97951688 290.56492518 445.45671254 290.56912792 C438.9880349 290.57173266 432.51940388 290.57784447 426.0507412 290.59241104 C419.95807061 290.60601934 413.86546571 290.61016698 407.77278137 290.60716629 C405.5407812 290.607715 403.30877876 290.611673 401.07679176 290.61936188 C398.0195953 290.62937394 394.96264392 290.62689703 391.90544128 290.62145996 C390.59361674 290.63019849 390.59361674 290.63019849 389.25529069 290.63911355 C367.38170148 290.53461524 350.2128534 280.82597714 335.02612305 265.67391968 C327.36570904 257.34473937 322.74483628 247.17266888 319.73706055 236.38095093 C319.51147461 235.6461853 319.28588867 234.91141968 319.0534668 234.15438843 C314.77514524 218.39836284 318.03165303 199.50851879 325.3894043 185.15829468 C335.1307115 168.44468171 348.27441803 156.65761888 366.73706055 150.38095093 C367.43013967 150.11611593 368.12321878 149.85128094 368.8373003 149.57842064 C376.60613722 146.85558006 384.2931897 146.97446549 392.41357422 147.02792358 C393.97689949 147.02709129 395.54022455 147.02487048 397.10354614 147.02137756 C400.45323619 147.01645207 403.80275036 147.02047703 407.15242577 147.03139114 C412.46279893 147.04785256 417.77295535 147.03923848 423.08332825 147.02655029 C437.22742556 146.9965321 451.37148275 146.99784025 465.51559573 147.01680315 C474.81653285 147.0291809 484.11722185 147.02714943 493.4181307 146.99841535 C498.68282639 146.98328781 503.94684338 146.99050621 509.21149576 147.01512551 C512.50535858 147.02528879 515.79891922 147.01440328 519.09274673 146.99801064 C520.60387655 146.99459663 522.11505539 146.99949242 523.62611961 147.01397896 C540.3077633 147.16382384 555.08065039 142.61373811 567.54956055 131.06845093 C577.74192295 120.11838293 580.46204525 108.16337893 580.0144043 93.65829468 C579.35663566 81.10064539 572.95858075 70.70791294 563.9050293 62.16220093 C552.56577117 52.84562128 540.93867841 50.25469431 526.59106445 50.17562866 C524.92188965 50.16077927 524.92188965 50.16077927 523.21899414 50.14562988 C519.55055856 50.11410923 515.88211004 50.08929472 512.21362305 50.06454468 C509.66628691 50.04396701 507.11895413 50.02297032 504.57162476 50.00157166 C498.55821485 49.95206679 492.54478756 49.90677982 486.53133047 49.86354929 C479.68243972 49.81407651 472.83359561 49.75919579 465.98475003 49.7038697 C451.90223044 49.59022952 437.81966603 49.48335174 423.73706055 49.38095093 C423.75800781 50.60201538 423.77895508 51.82307983 423.80053711 53.08114624 C423.87296213 57.61341617 423.91886943 62.145635 423.95678711 66.67831421 C423.97689687 68.63966474 424.00418873 70.60095537 424.03881836 72.56210327 C424.08736476 75.38207787 424.11003541 78.20125957 424.12768555 81.02157593 C424.14833069 81.89775574 424.16897583 82.77393555 424.19024658 83.67666626 C424.19054871 84.49721497 424.19085083 85.31776367 424.19116211 86.16317749 C424.20004456 86.88265564 424.208927 87.60213379 424.21807861 88.34341431 C423.50188193 91.37714022 422.21056343 92.52796382 419.73706055 94.38095093 C416.88499546 94.88431549 416.88499546 94.88431549 413.5191803 94.8888855 C412.24195602 94.90016479 410.96473175 94.91144409 409.64880371 94.92306519 C408.23559344 94.91528812 406.8223854 94.90709545 405.40917969 94.89852905 C403.91917741 94.9039499 402.42918049 94.91107235 400.93919373 94.91976929 C396.89363579 94.93801191 392.84848569 94.93093102 388.80292058 94.91825294 C384.56915895 94.90812817 380.33543231 94.91751734 376.10166931 94.92379761 C368.99056732 94.93107635 361.87963146 94.92148126 354.76855469 94.9024353 C346.54893642 94.88067441 338.32971514 94.88771118 330.11010653 94.90974092 C323.05264676 94.92789851 315.99530645 94.93045127 308.93783087 94.91998625 C304.72289775 94.91375218 300.50815116 94.91291304 296.29323006 94.9261322 C292.32944621 94.93769509 288.36617352 94.92965744 284.40244484 94.90655518 C282.94841104 94.90127 281.49433415 94.90277868 280.04031754 94.91160583 C278.05420222 94.92255073 276.06799281 94.90638603 274.08192444 94.8888855 C272.97082841 94.8873774 271.85973238 94.88586929 270.71496677 94.88431549 C267.73706055 94.38095093 267.73706055 94.38095093 262.73706055 90.38095093 C262.73706055 76.85095093 262.73706055 63.32095093 262.73706055 49.38095093 C226.43706055 49.38095093 190.13706055 49.38095093 152.73706055 49.38095093 C152.73706055 62.91095093 152.73706055 76.44095093 152.73706055 90.38095093 C148.3754639 94.74254757 148.13069306 94.88126423 142.43652344 94.8888855 C140.49327682 94.90580444 140.49327682 94.90580444 138.51077271 94.92306519 C137.07708517 94.91528814 135.64339984 94.90709547 134.2097168 94.89852905 C132.69838791 94.90394976 131.18706431 94.91107213 129.67575073 94.91976929 C125.57241243 94.93801195 121.4694762 94.9309314 117.36613083 94.91825294 C113.07317771 94.90813009 108.78025915 94.91751663 104.48730469 94.92379761 C97.2778505 94.93107611 90.06856018 94.92148104 82.85913086 94.9024353 C74.52247898 94.8806661 66.18621839 94.88771733 57.849576 94.90974092 C50.69361934 94.9278892 43.53778052 94.93045607 36.38180828 94.91998625 C32.10710422 94.91374814 27.83258411 94.91292432 23.55789185 94.9261322 C19.53912147 94.93768185 15.52085586 94.92968167 11.50214005 94.90655518 C10.02672285 94.90126327 8.55126323 94.90279015 7.07586288 94.91160583 C5.06312317 94.92252396 3.0502907 94.90640908 1.03759766 94.8888855 C-0.08916885 94.8873774 -1.21593536 94.88586929 -2.37684631 94.88431549 C-5.26293945 94.38095093 -5.26293945 94.38095093 -9.26293945 90.38095093 C-9.26293945 76.85095093 -9.26293945 63.32095093 -9.26293945 49.38095093 C-106.61293945 49.38095093 -203.96293945 49.38095093 -304.26293945 49.38095093 C-304.26293945 45.09095093 -304.26293945 40.80095093 -304.26293945 36.38095093 C-206.91293945 36.38095093 -109.56293945 36.38095093 -9.26293945 36.38095093 C-9.26293945 25.49095093 -9.26293945 14.60095093 -9.26293945 3.38095093 C-5.66624875 -0.21573978 -4.90034214 0.0048461 0 0 Z " fill="#00A8B3" transform="translate(409.262939453125,1139.6190490722656)"/>
<path d="M0 0 C1.91876856 1.10392511 3.85592203 2.10053782 5.84082031 3.078125 C9.11172155 4.91852979 11.04256191 6.11524048 13.14550781 9.234375 C14.375398 15.18970575 13.77970069 21.23836964 13.14550781 27.234375 C11.95800781 26.44270833 10.77050781 25.65104167 9.58300781 24.859375 C8.34357422 24.03759766 8.34357422 24.03759766 7.07910156 23.19921875 C4.97531771 21.79015979 2.88692389 20.36720031 0.80566406 18.92578125 C-19.0135956 5.29278648 -41.29113523 -5.44573369 -64.85449219 -10.765625 C-66.72041016 -11.21035156 -66.72041016 -11.21035156 -68.62402344 -11.6640625 C-90.6641073 -16.29754799 -118.0045746 -16.33442699 -139.85449219 -10.765625 C-140.64452637 -10.56694824 -141.43456055 -10.36827148 -142.24853516 -10.16357422 C-167.27683135 -3.65923795 -191.35492402 7.4284108 -211.85449219 23.234375 C-212.44069336 23.6792627 -213.02689453 24.12415039 -213.63085938 24.58251953 C-220.86102265 30.07440016 -227.75850914 35.791245 -234.40917969 41.9765625 C-236.51331609 43.91935937 -238.66032165 45.77053572 -240.85449219 47.609375 C-249.83334869 55.43144631 -257.49960299 64.9166054 -264.85449219 74.234375 C-265.56943848 75.1325293 -265.56943848 75.1325293 -266.29882812 76.04882812 C-280.29105417 93.68697806 -291.96703853 112.55534214 -302.85449219 132.234375 C-303.25087891 132.94062012 -303.64726563 133.64686523 -304.05566406 134.37451172 C-315.27380141 154.40481674 -324.14706309 175.75053881 -331.82958984 197.35742188 C-332.49455154 199.22400327 -333.1682028 201.08752046 -333.85205078 202.94726562 C-353.98894159 257.80603819 -362.31959731 318.98319213 -362.11523438 377.17553711 C-362.10448637 380.798835 -362.11522755 384.4216385 -362.12792969 388.04492188 C-362.14230479 409.82826557 -360.51437575 431.34156185 -357.60449219 452.921875 C-357.49678497 453.72475952 -357.38907776 454.52764404 -357.27810669 455.3548584 C-349.17388557 515.2016399 -330.20207883 573.44203321 -302.85449219 627.234375 C-302.15356445 628.62124512 -302.15356445 628.62124512 -301.43847656 630.03613281 C-291.20643629 650.06819388 -278.30177783 668.99873663 -263.85449219 686.234375 C-263.37705566 686.80655762 -262.89961914 687.37874023 -262.40771484 687.96826172 C-258.94300674 692.10406701 -255.41794188 696.18348353 -251.85449219 700.234375 C-251.40106445 700.75241699 -250.94763672 701.27045898 -250.48046875 701.80419922 C-217.26429574 739.56970199 -169.27753366 771.535339 -117.85449219 775.234375 C-113.48739249 775.37682496 -109.12421374 775.42020543 -104.75488281 775.41967773 C-102.75419005 775.42184821 -100.75353652 775.44031466 -98.75292969 775.45898438 C-89.59093058 775.47251095 -80.89576656 774.68047126 -71.85449219 773.234375 C-70.62859375 773.04717896 -70.62859375 773.04717896 -69.37792969 772.85620117 C-39.37365196 767.94813745 -10.18367403 751.21176715 13.14550781 732.234375 C15.32850814 747.9843181 15.32850814 747.9843181 12.01171875 752.92236328 C8.66502361 756.0653175 4.59601138 758.02952885 0.50244141 760.03466797 C-1.96590815 761.29108704 -4.29395332 762.68502471 -6.64746094 764.14453125 C-31.87945382 779.64520415 -61.3184356 790.15866656 -91.17480469 790.47265625 C-91.94773361 790.48240479 -92.72066254 790.49215332 -93.51701355 790.50219727 C-110.34842975 790.67086035 -126.4603746 790.51356559 -142.85449219 786.234375 C-143.58216797 786.05777344 -144.30984375 785.88117187 -145.05957031 785.69921875 C-158.15846973 782.49277918 -170.80534455 777.25894882 -182.85449219 771.234375 C-184.86872278 771.12839965 -186.88648947 771.08771053 -188.9034729 771.07615662 C-190.1935878 771.0663678 -191.4837027 771.05657898 -192.81291199 771.04649353 C-194.25076257 771.04058894 -195.68861354 771.03477852 -197.12646484 771.02905273 C-198.63413259 771.01947695 -200.14179764 771.00946705 -201.64945984 770.99905396 C-205.75043304 770.97196627 -209.85141779 770.95097767 -213.9524312 770.93105197 C-218.2352666 770.9092162 -222.51806624 770.88181575 -226.8008728 770.85499573 C-234.91458476 770.8050362 -243.02831653 770.76010949 -251.14206731 770.71697336 C-260.37775357 770.66762882 -269.61340395 770.61270039 -278.84905553 770.55729377 C-297.85083465 770.44342368 -316.85264813 770.33679369 -335.85449219 770.234375 C-335.85449219 765.944375 -335.85449219 761.654375 -335.85449219 757.234375 C-294.27449219 757.234375 -252.69449219 757.234375 -209.85449219 757.234375 C-209.85449219 756.574375 -209.85449219 755.914375 -209.85449219 755.234375 C-210.83869141 754.92693359 -210.83869141 754.92693359 -211.84277344 754.61328125 C-216.03203729 752.69523956 -219.4183713 749.99313698 -223.04199219 747.171875 C-223.79794678 746.58841309 -224.55390137 746.00495117 -225.33276367 745.40380859 C-230.23029912 741.5904764 -234.94565572 737.66720149 -239.48339844 733.4296875 C-241.50176542 731.56095234 -243.55441674 729.75831919 -245.63574219 727.9609375 C-249.84553921 724.28759197 -253.844254 720.43644871 -257.79199219 716.484375 C-258.83359497 715.44265137 -258.83359497 715.44265137 -259.89624023 714.37988281 C-271.97479259 702.16735936 -271.97479259 702.16735936 -276.08460712 695.12716293 C-277.74236545 692.98032482 -277.74236545 692.98032482 -280.55062389 692.72656631 C-281.64663575 692.72287914 -282.74264761 692.71919197 -283.87187195 692.71539307 C-285.1297049 692.70148026 -286.38753784 692.68756744 -287.68348694 692.67323303 C-289.07992683 692.67794629 -290.47636547 692.68304027 -291.87280273 692.68847656 C-293.34121803 692.67974388 -294.8096238 692.66925916 -296.27801514 692.65715027 C-300.26745504 692.62923184 -304.25658535 692.62588685 -308.24610877 692.62687016 C-312.4142096 692.62374604 -316.58216995 692.59813835 -320.75019836 692.57489014 C-328.64431568 692.53428803 -336.5383503 692.51397958 -344.43255597 692.50091624 C-353.41922776 692.48506041 -362.40575854 692.44665083 -371.39234865 692.40632296 C-389.87968872 692.32386642 -408.36700773 692.27061035 -426.85449219 692.234375 C-426.85449219 687.614375 -426.85449219 682.994375 -426.85449219 678.234375 C-381.64449219 678.234375 -336.43449219 678.234375 -289.85449219 678.234375 C-294.77723475 670.49262326 -294.77723475 670.49262326 -299.74121094 662.77734375 C-309.84137055 647.12547611 -318.52314708 630.89706522 -326.85449219 614.234375 C-402.09449219 613.739375 -402.09449219 613.739375 -478.85449219 613.234375 C-478.85449219 608.614375 -478.85449219 603.994375 -478.85449219 599.234375 C-431.00449219 598.904375 -383.15449219 598.574375 -333.85449219 598.234375 C-337.15449219 589.324375 -340.45449219 580.414375 -343.85449219 571.234375 C-347.66327518 559.59344669 -351.33610165 547.96234347 -354.85449219 536.234375 C-431.57949219 535.739375 -431.57949219 535.739375 -509.85449219 535.234375 C-509.85449219 530.614375 -509.85449219 525.994375 -509.85449219 521.234375 C-460.02449219 520.904375 -410.19449219 520.574375 -358.85449219 520.234375 C-361.16449219 510.994375 -363.47449219 501.754375 -365.85449219 492.234375 C-368.38397533 480.11948208 -369.96780544 469.64798948 -370.85449219 457.234375 C-421.01449219 457.234375 -471.17449219 457.234375 -522.85449219 457.234375 C-522.85449219 452.614375 -522.85449219 447.994375 -522.85449219 443.234375 C-473.68449219 443.234375 -424.51449219 443.234375 -373.85449219 443.234375 C-374.84449219 431.354375 -374.84449219 431.354375 -375.85449219 419.234375 C-375.85449219 405.704375 -375.85449219 392.174375 -375.85449219 378.234375 C-425.35449219 378.234375 -474.85449219 378.234375 -525.85449219 378.234375 C-525.85449219 373.944375 -525.85449219 369.654375 -525.85449219 365.234375 C-476.35449219 365.234375 -426.85449219 365.234375 -375.85449219 365.234375 C-375.85449219 358.634375 -375.85449219 352.034375 -375.85449219 345.234375 C-375.51922032 340.24776477 -375.1770587 335.30697968 -374.68261719 330.34057617 C-374.47697208 328.27151946 -374.28582213 326.20148419 -374.09667969 324.13085938 C-373.30607946 315.75622883 -372.13785945 307.57626222 -370.85449219 299.234375 C-421.01449219 299.234375 -471.17449219 299.234375 -522.85449219 299.234375 C-522.85449219 294.944375 -522.85449219 290.654375 -522.85449219 286.234375 C-472.03449219 285.904375 -421.21449219 285.574375 -368.85449219 285.234375 C-367.86449219 279.294375 -366.87449219 273.354375 -365.85449219 267.234375 C-364.93590827 262.73933731 -363.99398935 258.26888817 -362.97949219 253.796875 C-362.74875 252.74951172 -362.51800781 251.70214844 -362.28027344 250.62304688 C-360.06594217 240.74144556 -357.43700662 231.04792983 -354.85449219 221.234375 C-403.36449219 220.904375 -451.87449219 220.574375 -501.85449219 220.234375 C-501.85449219 215.614375 -501.85449219 210.994375 -501.85449219 206.234375 C-451.69449219 205.904375 -401.53449219 205.574375 -349.85449219 205.234375 C-346.38949219 195.334375 -346.38949219 195.334375 -342.85449219 185.234375 C-341.26245876 181.04737576 -339.65701955 176.8852533 -337.97949219 172.734375 C-337.60953125 171.79980469 -337.23957031 170.86523438 -336.85839844 169.90234375 C-332.82728381 159.85781721 -328.30760695 150.13018559 -323.85449219 140.234375 C-371.37449219 140.234375 -418.89449219 140.234375 -467.85449219 140.234375 C-467.85449219 135.614375 -467.85449219 130.994375 -467.85449219 126.234375 C-417.69449219 126.234375 -367.53449219 126.234375 -315.85449219 126.234375 C-314.86449219 123.264375 -314.86449219 123.264375 -313.85449219 120.234375 C-303.78847624 98.61566997 -288.4104729 78.94920734 -273.85449219 60.234375 C-319.06449219 60.234375 -364.27449219 60.234375 -410.85449219 60.234375 C-410.85449219 55.944375 -410.85449219 51.654375 -410.85449219 47.234375 C-409.00938553 47.26847977 -407.16427887 47.30258453 -405.26325989 47.33772278 C-387.80198872 47.64654596 -370.34251028 47.84405274 -352.87868214 47.93127918 C-343.9016707 47.97891297 -334.92828157 48.06514174 -325.95288086 48.24584961 C-318.11947259 48.40346307 -310.28937735 48.48498012 -302.45432681 48.47926635 C-298.312834 48.47879577 -294.17913423 48.51357588 -290.03940773 48.63990211 C-268.5876276 49.4452006 -268.5876276 49.4452006 -250.50560284 39.00226116 C-247.18762265 35.44570473 -244.15000148 31.7267038 -241.1525631 27.89862633 C-237.25134601 23.37577946 -232.58157167 19.85136651 -227.85449219 16.234375 C-226.73395822 15.33195974 -225.61508495 14.42747199 -224.49902344 13.51953125 C-158.1751327 -38.53328783 -72.17813483 -42.66325422 0 0 Z " fill="#00A8B3" transform="translate(1010.8544921875,287.765625)"/>
<path d="M0 0 C0.06996021 11.0497479 0.12304249 22.09944184 0.15543652 33.14936733 C0.17099543 38.28203168 0.19205179 43.41454289 0.22631836 48.54711914 C0.25926463 53.51384518 0.27692619 58.48042527 0.28463173 63.44725227 C0.2901127 65.32837275 0.30081249 67.20948658 0.31719017 69.09054375 C0.44280814 84.13684442 -0.64250701 98.7477734 -5.6875 113.0625 C-5.94241211 113.79944092 -6.19732422 114.53638184 -6.45996094 115.2956543 C-14.1135618 136.66767177 -27.38558059 154.61115103 -45 169 C-45.86334961 169.70793701 -45.86334961 169.70793701 -46.74414062 170.43017578 C-53.18745379 175.70913151 -59.66334591 180.94625248 -66.1875 186.125 C-71.65386865 190.4852974 -76.9723815 195.01802593 -82.29589844 199.55029297 C-85.17202844 201.99706374 -88.0549226 204.43583193 -90.9375 206.875 C-91.45675049 207.31497314 -91.97600098 207.75494629 -92.51098633 208.20825195 C-95.99288581 211.15645826 -99.49209958 214.08284883 -103 217 C-105.72929121 215.72077269 -108.01940079 214.32672277 -110.35546875 212.42578125 C-110.97292969 211.92691406 -111.59039062 211.42804688 -112.2265625 210.9140625 C-112.87367188 210.38554688 -113.52078125 209.85703125 -114.1875 209.3125 C-115.5452078 208.21439216 -116.90327856 207.11673294 -118.26171875 206.01953125 C-119.2369751 205.2298999 -119.2369751 205.2298999 -120.23193359 204.42431641 C-122.30170216 202.75695521 -124.39471445 201.12223724 -126.5 199.5 C-131.11725631 195.93290913 -135.65813574 192.27232373 -140.2043457 188.61547852 C-143.78921379 185.74033466 -147.40481841 182.91838995 -151.07568359 180.15405273 C-181.7154047 157.02807117 -203.2059919 126.01503331 -208.72546768 87.39735794 C-209.57754686 79.95656261 -209.36050698 72.44126076 -209.29296875 64.96484375 C-209.28735547 63.10584358 -209.2830936 61.24683889 -209.28010559 59.38783264 C-209.26879289 54.55625592 -209.23944714 49.72496101 -209.20599365 44.89349365 C-209.17499549 39.93880014 -209.16153748 34.98405994 -209.14648438 30.02929688 C-209.11456073 20.35274252 -209.06353443 10.67639493 -209 1 C-205.4048952 2.17360669 -202.06823622 3.35286097 -198.75 5.171875 C-197.98333008 5.58622803 -197.21666016 6.00058105 -196.42675781 6.42749023 C-195.62592773 6.86391846 -194.82509766 7.30034668 -194 7.75 C-186.14804646 11.96030302 -178.2544913 15.63744707 -170 19 C-168.87851563 19.49757813 -167.75703125 19.99515625 -166.6015625 20.5078125 C-125.67293926 37.46522473 -76.14697381 34.56023608 -35.60498047 18.1171875 C-24.3094332 13.27291156 -13.37137579 7.57634776 -2.91821289 1.12133789 C-1 0 -1 0 0 0 Z " fill="#00CCD6" transform="translate(391,919)"/>
<path d="M0 0 C1.03253906 0.24234375 2.06507812 0.4846875 3.12890625 0.734375 C12.00496034 2.78182328 20.90428263 4.6030003 29.875 6.1875 C30.79998291 6.35411133 31.72496582 6.52072266 32.67797852 6.69238281 C44.80726034 8.78872218 56.89891253 9.23985537 69.1875 9.25 C70.30108383 9.25101212 70.30108383 9.25101212 71.43716431 9.25204468 C91.46365418 9.22337378 110.57193144 6.66711237 130.06640625 2.0859375 C134.36885999 1.09056262 138.60929268 0.46110112 143 0 C161.84010254 33.89113417 173 76.20174119 173 115 C106.34 115 39.68 115 -29 115 C-29 75.9017776 -18.00663032 34.68558283 0 0 Z " fill="#00D0D9" transform="translate(39,756)"/>
<path d="M0 0 C66.66 0 133.32 0 202 0 C202 15.87692308 202 15.87692308 201.125 22.0625 C200.88136719 23.87427734 200.88136719 23.87427734 200.6328125 25.72265625 C200.05520515 28.71409184 199.2461286 31.23024357 198 34 C192.59806968 32.48472002 188.195032 29.9419495 183.4375 27.0625 C182.69564453 26.61970703 181.95378906 26.17691406 181.18945312 25.72070312 C178.17547134 23.91982888 175.17893813 22.11625923 172.234375 20.203125 C168.63656467 18.26584252 166.03575702 18.66920024 162 19 C158.96691347 22.03308653 159.69157436 25.50993212 159.68115234 29.58056641 C159.67110672 30.46843338 159.6610611 31.35630035 159.65071106 32.27107239 C159.61974633 35.21456232 159.60280714 38.15796077 159.5859375 41.1015625 C159.56723653 43.13895462 159.54766394 45.1763389 159.5272522 47.2137146 C159.4758118 52.58292027 159.43624994 57.95215108 159.39910889 63.32147217 C159.35914372 68.797712 159.30801732 74.27384616 159.2578125 79.75 C159.16091229 90.4999259 159.07655278 101.2499113 159 112 C157.42895943 111.84995673 155.85811511 111.69785795 154.28735352 111.54492188 C152.97517601 111.41821106 152.97517601 111.41821106 151.63648987 111.28894043 C147.7065875 110.85825124 143.82881321 110.19011876 139.9375 109.5 C130.86702017 107.89979308 122.00598372 106.84495614 112.78515625 106.83203125 C111.93054306 106.82870285 111.07592987 106.82537445 110.19541931 106.82194519 C108.39452648 106.81691399 106.59362446 106.81453568 104.79272461 106.81469727 C102.1005829 106.81253065 99.4088653 106.79438882 96.71679688 106.77539062 C81.68748636 106.72569726 67.0121526 107.93663295 52.25 110.875 C50.94639526 111.12781738 50.94639526 111.12781738 49.61645508 111.38574219 C42.28072663 112.85166853 35.13250703 114.74636753 28 117 C9.08833408 80.90486258 1.83070912 40.27560071 0 0 Z " fill="#00D0D9" transform="translate(10,884)"/>
<path d="M0 0 C2.24663192 0.01607695 4.4914593 0.000056 6.73803711 -0.01904297 C25.9571172 -0.04769795 44.64074155 4.73302166 61.81420898 13.39111328 C63.51963867 14.21869141 63.51963867 14.21869141 65.25952148 15.06298828 C80.05385556 22.43471533 92.86469241 32.84481189 105.08227539 43.88769531 C106.85889399 45.42990244 108.70100419 46.84186903 110.57592773 48.26220703 C115.11781487 51.91957701 119.1599153 55.17729189 120.3684082 61.11328125 C120.91740097 67.57158581 120.54578199 73.96106274 119.81420898 80.39111328 C116.69274966 77.3149746 113.67131886 74.18171112 110.71972656 70.93994141 C108.10568749 68.07071508 105.46083187 65.23026214 102.81420898 62.39111328 C102.0963623 61.61791748 102.0963623 61.61791748 101.36401367 60.82910156 C79.48701747 37.46568924 47.65256932 16.8160542 14.82861328 15.24853516 C-0.28744995 14.82416383 -14.69536567 14.76696812 -29.18579102 19.39111328 C-29.83692871 19.58946777 -30.48806641 19.78782227 -31.15893555 19.9921875 C-54.98493772 27.42192819 -75.42393813 42.22462977 -93.18579102 59.39111328 C-94.10875977 60.26251953 -95.03172852 61.13392578 -95.98266602 62.03173828 C-131.3887401 96.23760647 -153.77792855 145.50360341 -169.18579102 191.39111328 C-169.54415039 192.4475 -169.90250977 193.50388672 -170.27172852 194.59228516 C-178.53286189 219.20487237 -184.74628931 245.14652231 -187.88696289 270.94726562 C-188.22207463 273.68784446 -188.58704288 276.4238074 -188.95141602 279.16064453 C-189.78482417 285.56180934 -190.51094905 291.97141323 -191.18579102 298.39111328 C-191.3467627 299.90318359 -191.3467627 299.90318359 -191.51098633 301.44580078 C-194.88214697 334.75072748 -194.46912124 369.14055932 -191.44604492 402.46044922 C-191.21482996 405.06411183 -191.02499033 407.66578538 -190.85375977 410.27392578 C-184.65650359 495.41804651 -148.94900079 592.49408641 -83.98266602 650.02783203 C-53.88008506 675.46367209 -21.8057534 687.58615688 17.81420898 685.39111328 C49.99280202 682.27759587 77.12450012 663.04653343 99.81420898 641.39111328 C100.61600586 640.63056641 101.41780273 639.87001953 102.24389648 639.08642578 C107.24039004 634.22824347 111.65550356 629.05296143 115.96655273 623.57861328 C117.81420898 621.39111328 117.81420898 621.39111328 119.81420898 620.39111328 C121.16227637 628.31396549 122.55834186 636.90093696 118.17504883 644.07324219 C113.09407066 650.26047659 107.00834269 655.35746155 100.81420898 660.39111328 C99.5064509 661.49472749 98.19910736 662.59883327 96.89233398 663.70361328 C93.62464327 666.40470483 90.2506362 668.90809771 86.81420898 671.39111328 C85.79713867 672.15294922 84.78006836 672.91478516 83.73217773 673.69970703 C65.70331824 686.7848038 44.19724567 697.15280961 21.81420898 699.39111328 C20.91702148 699.49939453 20.01983398 699.60767578 19.09545898 699.71923828 C16.00014193 700.04237578 12.92285397 700.23904077 9.81420898 700.39111328 C9.13503418 700.4251123 8.45585938 700.45911133 7.75610352 700.49414062 C-32.96079999 702.25898771 -68.95857684 682.64771079 -98.31079102 655.89111328 C-106.97468429 647.88143801 -114.91397632 639.69716553 -122.18579102 630.39111328 C-122.62761719 629.83101562 -123.06944336 629.27091797 -123.5246582 628.69384766 C-179.6437157 557.22698947 -205.71765881 463.02077081 -204.56735229 285.23126221 C-203.83632182 279.27571597 -203.02049525 273.33298247 -202.18579102 267.39111328 C-202.03384277 266.27881348 -201.88189453 265.16651367 -201.7253418 264.02050781 C-191.44050256 189.82192729 -162.59430947 111.41239718 -110.68188477 56.07470703 C-108.55519279 53.78826355 -106.51506541 51.46124244 -104.49829102 49.07861328 C-101.03506445 45.11016307 -97.26513861 41.71629577 -93.18579102 38.39111328 C-92.28473633 37.65248047 -91.38368164 36.91384766 -90.45532227 36.15283203 C-72.26372829 21.69639423 -51.80943164 9.36369468 -29.18579102 3.39111328 C-28.20908447 3.13072266 -27.23237793 2.87033203 -26.22607422 2.60205078 C-17.38810499 0.46427159 -9.03524162 -0.07659481 0 0 Z " fill="#00A9B4" transform="translate(904.185791015625,318.60888671875)"/>
<path d="M0 0 C0.86706573 0.00247742 1.73413147 0.00495483 2.62747192 0.00750732 C3.53978073 0.00239639 4.45208954 -0.00271454 5.39204407 -0.00798035 C8.41858414 -0.02192124 11.44489764 -0.02091619 14.47146606 -0.01861572 C16.56892482 -0.02250022 18.66638279 -0.02683437 20.76383972 -0.03160095 C25.16469877 -0.03907287 29.5654776 -0.03876488 33.96633911 -0.0335083 C39.61372619 -0.02771277 45.2607854 -0.0446421 50.90811825 -0.06785297 C55.24118478 -0.0825652 59.5741719 -0.08346543 63.90725899 -0.08034325 C65.9897279 -0.08085774 68.07220112 -0.08611927 70.15464592 -0.09615517 C73.06377508 -0.10845346 75.9722598 -0.10176764 78.88137817 -0.09014893 C79.74641968 -0.09779266 80.61146118 -0.1054364 81.50271606 -0.11331177 C87.31820713 -0.0618178 87.31820713 -0.0618178 89.54005718 1.46394825 C91.30379697 3.97114048 91.19657998 5.69378747 91.20007324 8.74786377 C91.20853271 9.88356308 91.21699219 11.01926239 91.22570801 12.18937683 C91.21963531 13.43622757 91.21356262 14.68307831 91.20730591 15.9677124 C91.21256287 17.28006363 91.21781982 18.59241486 91.22323608 19.9445343 C91.23692618 23.54576722 91.2316042 27.14674263 91.22209883 30.74798012 C91.21451093 34.51422451 91.22154541 38.28044665 91.22625732 42.04669189 C91.23171743 48.37180546 91.22451663 54.69681399 91.2102356 61.02191162 C91.19390852 68.33775166 91.19919686 75.6533409 91.21571481 82.96917486 C91.22932247 89.24695914 91.23125289 95.52466785 91.2233988 101.8024621 C91.21871829 105.55342375 91.21810772 109.30426746 91.22800827 113.05522156 C91.23827183 117.23583872 91.22405235 121.41602252 91.20730591 125.59661865 C91.2133786 126.84346939 91.21945129 128.09032013 91.22570801 129.37495422 C91.21724854 130.51065353 91.20878906 131.64635284 91.20007324 132.81646729 C91.19894217 133.80534187 91.19781109 134.79421646 91.19664574 135.81305695 C90.81912231 138.28216553 90.81912231 138.28216553 89.53447056 140.09996223 C86.45769646 142.22044854 82.70710256 141.69635109 79.09671021 141.67034912 C78.2053688 141.67560608 77.3140274 141.68086304 76.39567566 141.6862793 C73.44419925 141.69950139 70.49326063 141.69073262 67.54177856 141.68060303 C65.49298499 141.68262331 63.44419211 141.68553436 61.395401 141.68930054 C57.09882774 141.69372704 52.80244144 141.68728296 48.50588989 141.67327881 C42.9964892 141.6561976 37.48752727 141.66601942 31.97814274 141.6839962 C27.74624829 141.69483439 23.51445792 141.69138733 19.28256035 141.68361282 C17.25116359 141.68161036 15.21975741 141.68407171 13.18837166 141.69105148 C10.34896939 141.69866524 7.51027823 141.68706219 4.67092896 141.67034912 C3.82975525 141.67642181 2.98858154 141.68249451 2.12191772 141.68875122 C-2.31724039 141.6403124 -5.02609663 141.50199326 -8.18087769 138.28216553 C-8.67865562 135.79464626 -8.67865562 135.79464626 -8.675354 132.77177429 C-8.68374298 131.62621567 -8.69213196 130.48065704 -8.70077515 129.30038452 C-8.68953613 128.042612 -8.67829712 126.78483948 -8.66671753 125.48895264 C-8.66886325 124.15186695 -8.67274073 122.81478308 -8.67822266 121.47770691 C-8.68792397 117.84545131 -8.67260416 114.21368652 -8.65231657 110.58149028 C-8.63476452 106.78409418 -8.63827027 102.98671367 -8.63903809 99.18928528 C-8.63716453 92.81285373 -8.61979226 86.43661244 -8.59249878 80.0602417 C-8.56103387 72.6819346 -8.55050301 65.30383582 -8.55196989 57.92546648 C-8.55318941 50.83423396 -8.54298888 43.74306947 -8.52638626 36.65185738 C-8.51931455 33.63075797 -8.51565891 30.60968264 -8.51459885 27.58857536 C-8.51259375 24.03367135 -8.50041541 20.47894311 -8.48026657 16.92409706 C-8.47161217 14.99222234 -8.47276169 13.06031157 -8.47415161 11.12841797 C-8.46562164 9.98567917 -8.45709167 8.84294037 -8.44830322 7.66557312 C-8.44495153 6.6684024 -8.44159985 5.67123167 -8.43814659 4.64384365 C-7.87153753 -0.55751645 -4.41323967 0.0396113 0 0 Z " fill="#00CDD7" transform="translate(837.1808776855469,600.7178344726563)"/>
<path d="M0 0 C216.48 0 432.96 0 656 0 C656 4.29 656 8.58 656 13 C439.52 13 223.04 13 0 13 C0 8.71 0 4.42 0 0 Z " fill="#00A6B2" transform="translate(0,1485)"/>
<path d="M0 0 C27.72 0 55.44 0 84 0 C85.65 2.97 87.3 5.94 89 9 C94.07600112 16.46540679 100.53868518 20.17956173 109 23 C109 30.26 109 37.52 109 45 C104.45898438 47.19726562 104.45898438 47.19726562 99.91796875 49.39453125 C97.40280413 50.77837685 95.93648211 51.96577747 94 54 C93.34 54 92.68 54 92 54 C91.58427734 54.86238281 91.58427734 54.86238281 91.16015625 55.7421875 C90.0230191 57.95520189 88.77357662 60.02716029 87.4375 62.125 C86.20368855 64.06541563 85.02847987 65.94304025 84 68 C56.28 68 28.56 68 0 68 C-1.98 64.37 -3.96 60.74 -6 57 C-11.92233566 50.9821428 -17.78797888 47.05300528 -26 45 C-26 38.07 -26 31.14 -26 24 C-24.515 23.46375 -23.03 22.9275 -21.5 22.375 C-12.41062559 18.69046546 -6.71365027 13.63168442 -2 5 C-1.34 3.35 -0.68 1.7 0 0 Z " fill="#00CFD8" transform="translate(711,1153)"/>
<path d="M0 0 C27.72 0 55.44 0 84 0 C85.98 3.63 87.96 7.26 90 11 C95.5521412 17.61986066 101.82305079 21.27435026 110 24 C110 30.93 110 37.86 110 45 C107.03 45.99 104.06 46.98 101 48 C92.57063819 52.73896269 87.74820531 59.25418762 84 68 C56.28 68 28.56 68 0 68 C-0.99 65.36 -1.98 62.72 -3 60 C-8.03614686 51.66721105 -16.78165416 47.30458646 -26 45 C-26 38.07 -26 31.14 -26 24 C-21.55664062 22.2421875 -21.55664062 22.2421875 -17.11328125 20.484375 C-12.13798459 18.11221348 -8.84308821 15.24743246 -5.875 10.625 C-5.39804687 9.89539062 -4.92109375 9.16578125 -4.4296875 8.4140625 C-2.81453206 5.68683283 -1.41749842 2.83499683 0 0 Z " fill="#00CFD8" transform="translate(439,1153)"/>
<path d="M0 0 C0.81791016 0.17644043 1.63582031 0.35288086 2.47851562 0.53466797 C7.34387078 1.59931555 12.17780299 2.75495045 17 4 C18.78051767 9.13208033 19.47319358 12.60777021 18 18 C16.17440222 21.57699043 14.02330837 24.90066507 11.8125 28.25 C11.18754639 29.21292969 10.56259277 30.17585938 9.91870117 31.16796875 C0.39669249 45.68405461 -10.14401397 59.46336423 -21 73 C-21.75667969 73.95132812 -22.51335937 74.90265625 -23.29296875 75.8828125 C-27.81078728 81.49610207 -32.53097408 86.86475986 -37.45898438 92.11767578 C-40.03125758 94.83939141 -40.03125758 94.83939141 -42 98 C-46.28249763 96.42436408 -48.68583977 93.16216352 -51.5 89.75 C-52.57378722 88.46838832 -53.648018 87.18714817 -54.72265625 85.90625 C-55.26809082 85.25269531 -55.81352539 84.59914063 -56.37548828 83.92578125 C-57.89301293 82.12682807 -59.43584674 80.35566861 -60.99609375 78.59375 C-77.5537151 59.83724135 -91.45578661 38.60676754 -104 17 C-104.54914063 16.05640625 -105.09828125 15.1128125 -105.6640625 14.140625 C-109 8.28875698 -109 8.28875698 -109 6 C-74.66948938 -4.20297758 -35.28116709 -7.79742118 0 0 Z " fill="#00D0D9" transform="translate(153,1006)"/>
<path d="M0 0 C6.30878298 4.96648873 11.04785127 10.70664432 16 17 C16.8533863 18.0644282 17.70757083 19.12821686 18.5625 20.19140625 C36.63935306 42.78498174 51.58182343 66.95468838 66 92 C63.33853609 94.66146391 60.48974218 95.09006417 56.9375 95.9375 C55.88296631 96.19527222 55.88296631 96.19527222 54.80712891 96.45825195 C46.93548943 98.33265892 38.98182391 99.69191404 31 101 C30.15163574 101.17273438 29.30327148 101.34546875 28.42919922 101.5234375 C23.74395381 102.17455519 19.11604324 102.20182377 14.390625 102.23828125 C13.35872543 102.24793915 12.32682587 102.25759705 11.26365662 102.26754761 C7.92573465 102.29237861 4.58800438 102.30494261 1.25 102.3125 C0.11873688 102.31545074 -1.01252625 102.31840149 -2.17807007 102.32144165 C-18.81153344 102.33135124 -34.7178647 101.68594959 -51 98 C-52.47508688 97.68798056 -53.95033563 97.37672491 -55.42578125 97.06640625 C-58.303051 96.43140163 -61.1539807 95.76047479 -64 95 C-63.42898057 91.53141716 -62.57036588 88.81329604 -60.8828125 85.734375 C-60.44670654 84.93580078 -60.01060059 84.13722656 -59.5612793 83.31445312 C-59.08730713 82.46818359 -58.61333496 81.62191406 -58.125 80.75 C-57.63104736 79.86248047 -57.13709473 78.97496094 -56.62817383 78.06054688 C-42.47034469 52.91304272 -25.29157609 29.35352275 -6.37646484 7.59814453 C-4.21823358 5.09233009 -2.10919193 2.54716621 0 0 Z " fill="#00D0D9" transform="translate(110,650)"/>
<path d="M0 0 C4.56346008 3.03461895 5.62426391 7.89444535 7.21875 12.87109375 C7.82636214 14.68446086 8.43715634 16.49676419 9.05078125 18.30810547 C9.36805176 19.24692566 9.68532227 20.18574585 10.01220703 21.15301514 C11.61793642 25.78099631 13.38039518 30.34526601 15.15625 34.91015625 C15.51122559 35.82485687 15.86620117 36.7395575 16.23193359 37.68197632 C17.31866613 40.47651443 18.40897282 43.2696361 19.5 46.0625 C22.00222156 52.4801004 24.49739414 58.90030055 26.97119141 65.32891846 C27.66244099 67.12360021 28.35616474 68.91733079 29.05224609 70.71014404 C30.05558153 73.30164143 31.04518036 75.8979855 32.03125 78.49609375 C32.33236694 79.26744156 32.63348389 80.03878937 32.94372559 80.83351135 C34.51405277 85.01838444 35.50495517 88.45831988 35 93 C33.66572699 95.33202584 32.37894162 97.27319885 30.75 99.375 C30.30470947 99.97296387 29.85941895 100.57092773 29.40063477 101.18701172 C28.44349064 102.46860867 27.47980558 103.74534184 26.51025391 105.01757812 C24.98668894 107.01747265 23.48148796 109.03001667 21.98046875 111.046875 C19.46419138 114.42348382 16.93186804 117.78763785 14.39453125 121.1484375 C12.39804304 123.79923697 10.41954746 126.46339341 8.4375 129.125 C4.82534371 133.94337006 1.12585032 138.68561845 -2.61108398 143.40722656 C-5.29262129 146.80262182 -7.93879473 150.22166737 -10.5546875 153.66796875 C-11.44559082 154.84129761 -11.44559082 154.84129761 -12.35449219 156.03833008 C-13.52192599 157.57907869 -14.68670408 159.12184366 -15.84863281 160.66674805 C-16.37553711 161.36195557 -16.90244141 162.05716309 -17.4453125 162.7734375 C-18.14938232 163.70808838 -18.14938232 163.70808838 -18.86767578 164.66162109 C-19.24134277 165.10328613 -19.61500977 165.54495117 -20 166 C-20.33 166 -20.66 166 -21 166 C-21.35096141 145.98109254 -21.61518149 125.96281215 -21.77718258 105.94146252 C-21.85441555 96.6442529 -21.95963016 87.34895842 -22.1315918 78.05297852 C-22.28146826 69.94699954 -22.37795589 61.84240757 -22.41132742 53.73508149 C-22.43082771 49.44443953 -22.47636951 45.1577639 -22.58595085 40.86839867 C-23.27683548 12.75419359 -23.27683548 12.75419359 -17.77175903 6.39663696 C-12.61428874 1.90729291 -6.98860684 -0.78462891 0 0 Z " fill="#00AAB5" transform="translate(21,1202)"/>
<path d="M0 0 C0.86706573 0.00247742 1.73413147 0.00495483 2.62747192 0.00750732 C3.53978073 0.00239639 4.45208954 -0.00271454 5.39204407 -0.00798035 C8.41858414 -0.02192124 11.44489764 -0.02091619 14.47146606 -0.01861572 C16.56892482 -0.02250022 18.66638279 -0.02683437 20.76383972 -0.03160095 C25.16469877 -0.03907287 29.5654776 -0.03876488 33.96633911 -0.0335083 C39.61372619 -0.02771277 45.2607854 -0.0446421 50.90811825 -0.06785297 C55.24118478 -0.0825652 59.5741719 -0.08346543 63.90725899 -0.08034325 C65.9897279 -0.08085774 68.07220112 -0.08611927 70.15464592 -0.09615517 C73.06377508 -0.10845346 75.9722598 -0.10176764 78.88137817 -0.09014893 C79.74641968 -0.09779266 80.61146118 -0.1054364 81.50271606 -0.11331177 C87.31820713 -0.0618178 87.31820713 -0.0618178 89.54005718 1.46394825 C91.30379697 3.97114048 91.19657998 5.69378747 91.20007324 8.74786377 C91.20853271 9.88356308 91.21699219 11.01926239 91.22570801 12.18937683 C91.21963531 13.43622757 91.21356262 14.68307831 91.20730591 15.9677124 C91.21256287 17.28006363 91.21781982 18.59241486 91.22323608 19.9445343 C91.23692618 23.54576722 91.2316042 27.14674263 91.22209883 30.74798012 C91.21451093 34.51422451 91.22154541 38.28044665 91.22625732 42.04669189 C91.23171743 48.37180546 91.22451663 54.69681399 91.2102356 61.02191162 C91.19390852 68.33775166 91.19919686 75.6533409 91.21571481 82.96917486 C91.22932247 89.24695914 91.23125289 95.52466785 91.2233988 101.8024621 C91.21871829 105.55342375 91.21810772 109.30426746 91.22800827 113.05522156 C91.23827183 117.23583872 91.22405235 121.41602252 91.20730591 125.59661865 C91.2133786 126.84346939 91.21945129 128.09032013 91.22570801 129.37495422 C91.21724854 130.51065353 91.20878906 131.64635284 91.20007324 132.81646729 C91.19894217 133.80534187 91.19781109 134.79421646 91.19664574 135.81305695 C90.81912231 138.28216553 90.81912231 138.28216553 89.53447056 140.09996223 C86.45769646 142.22044854 82.70710256 141.69635109 79.09671021 141.67034912 C78.2053688 141.67560608 77.3140274 141.68086304 76.39567566 141.6862793 C73.44419925 141.69950139 70.49326063 141.69073262 67.54177856 141.68060303 C65.49298499 141.68262331 63.44419211 141.68553436 61.395401 141.68930054 C57.09882774 141.69372704 52.80244144 141.68728296 48.50588989 141.67327881 C42.9964892 141.6561976 37.48752727 141.66601942 31.97814274 141.6839962 C27.74624829 141.69483439 23.51445792 141.69138733 19.28256035 141.68361282 C17.25116359 141.68161036 15.21975741 141.68407171 13.18837166 141.69105148 C10.34896939 141.69866524 7.51027823 141.68706219 4.67092896 141.67034912 C3.82975525 141.67642181 2.98858154 141.68249451 2.12191772 141.68875122 C-2.31724039 141.6403124 -5.02609663 141.50199326 -8.18087769 138.28216553 C-8.67865562 135.79464626 -8.67865562 135.79464626 -8.675354 132.77177429 C-8.68374298 131.62621567 -8.69213196 130.48065704 -8.70077515 129.30038452 C-8.68953613 128.042612 -8.67829712 126.78483948 -8.66671753 125.48895264 C-8.66886325 124.15186695 -8.67274073 122.81478308 -8.67822266 121.47770691 C-8.68792397 117.84545131 -8.67260416 114.21368652 -8.65231657 110.58149028 C-8.63476452 106.78409418 -8.63827027 102.98671367 -8.63903809 99.18928528 C-8.63716453 92.81285373 -8.61979226 86.43661244 -8.59249878 80.0602417 C-8.56103387 72.6819346 -8.55050301 65.30383582 -8.55196989 57.92546648 C-8.55318941 50.83423396 -8.54298888 43.74306947 -8.52638626 36.65185738 C-8.51931455 33.63075797 -8.51565891 30.60968264 -8.51459885 27.58857536 C-8.51259375 24.03367135 -8.50041541 20.47894311 -8.48026657 16.92409706 C-8.47161217 14.99222234 -8.47276169 13.06031157 -8.47415161 11.12841797 C-8.46562164 9.98567917 -8.45709167 8.84294037 -8.44830322 7.66557312 C-8.44495153 6.6684024 -8.44159985 5.67123167 -8.43814659 4.64384365 C-7.87153753 -0.55751645 -4.41323967 0.0396113 0 0 Z M4.81912231 13.28216553 C4.81912231 50.90216553 4.81912231 88.52216553 4.81912231 127.28216553 C28.90912231 127.28216553 52.99912231 127.28216553 77.81912231 127.28216553 C77.81912231 89.66216553 77.81912231 52.04216553 77.81912231 13.28216553 C53.72912231 13.28216553 29.63912231 13.28216553 4.81912231 13.28216553 Z " fill="#00A8B3" transform="translate(837.1808776855469,600.7178344726563)"/>
<path d="M0 0 C9.56767429 8.14768805 15.84094674 18.1463322 20.3125 29.8125 C20.6528125 30.69679688 20.993125 31.58109375 21.34375 32.4921875 C26.91501515 50.28928451 23.78616728 69.50176535 16.125 86 C7.17886652 102.99765361 -6.49033633 113.70332963 -24.3671875 120.13671875 C-43.61554595 125.74590296 -63.70425949 124.28516114 -81.36328125 114.76171875 C-86.25502085 111.8933544 -90.48624829 108.60717896 -94.6875 104.8125 C-95.45707031 104.14734375 -96.22664063 103.4821875 -97.01953125 102.796875 C-110.68697444 90.22375861 -116.46652705 72.74166923 -117.9453125 54.66015625 C-118.60598278 36.84408105 -111.76253979 19.68853301 -100.11328125 6.3359375 C-72.58623892 -22.29927884 -30.99773941 -23.70919764 0 0 Z M-90.6875 15.8125 C-102.56218283 29.94128113 -104.9601973 44.97781362 -103.6875 62.8125 C-103.00080783 67.38726865 -101.53875804 71.58018311 -99.6875 75.8125 C-99.1615625 77.01712891 -99.1615625 77.01712891 -98.625 78.24609375 C-95.42175782 84.66370049 -90.67265082 89.72276559 -85.6875 94.8125 C-84.89085937 95.66328125 -84.89085937 95.66328125 -84.078125 96.53125 C-72.29209613 107.95276251 -56.561782 109.21566132 -41.0546875 109.01953125 C-27.29321874 108.63398305 -13.91789157 102.45145822 -4.40625 92.40234375 C7.02258171 78.74006078 11.65063387 63.55837495 10.52832031 45.86376953 C9.06928478 31.99633 1.80858478 21.47373408 -7.6875 11.8125 C-8.25339844 11.23371094 -8.81929688 10.65492188 -9.40234375 10.05859375 C-20.65385927 -0.4776665 -36.01157722 -3.84935633 -50.9921875 -3.46484375 C-66.71748255 -2.28461547 -79.92645959 4.2733244 -90.6875 15.8125 Z " fill="#00A9B4" transform="translate(381.6875,437.1875)"/>
<path d="M0 0 C122.76 0 245.52 0 372 0 C372 4.62 372 9.24 372 14 C249.9 14 127.8 14 2 14 C0 4 0 4 0 0 Z " fill="#00A8B3" transform="translate(530,165)"/>
<path d="M0 0 C4.49048142 2.05319057 7.17282736 4.8720373 10.0625 8.8125 C11.67101992 14.28146771 11.01584611 19.00894163 8.4375 24.0625 C7.963125 24.701875 7.48875 25.34125 7 26 C7.66 26.61875 8.32 27.2375 9 27.875 C11.80326913 32.25510802 11.81951029 35.92534014 11 41 C9.91014398 43.64947757 8.65020283 45.62783344 7 48 C7.99 48.9590625 7.99 48.9590625 9 49.9375 C11.68182304 54.04404153 11.73000154 57.21723127 11 62 C9.5 65.5625 9.5 65.5625 8 68 C7.34 68 6.68 68 6 68 C6.66 68.99 7.32 69.98 8 71 C11.07745695 71.31584395 13.95763172 71.43733984 17.03955078 71.43237305 C18.44450302 71.44766052 18.44450302 71.44766052 19.87783813 71.46325684 C22.98372264 71.49352896 26.08929949 71.50267446 29.1953125 71.51171875 C31.34480832 71.52855489 33.49429422 71.54670367 35.64376831 71.56611633 C41.30890812 71.61373802 46.97400777 71.6434686 52.63928223 71.66955566 C58.41715429 71.69929992 64.19488778 71.7458512 69.97265625 71.79101562 C81.31503186 71.87718713 92.6574359 71.94447069 104 72 C104 75.96 104 79.92 104 84 C72.98 84 41.96 84 10 84 C9.34 85.65 8.68 87.3 8 89 C3.92870444 92.89034909 0.45911415 95.9534909 -5.32421875 96.03125 C-10.9049623 95.69757326 -14.69016998 94.79675501 -19 91 C-22.46313113 86.97528004 -23.75567925 83.42248995 -24.19921875 78.23046875 C-23.97010787 75.66532534 -23.26789964 74.47096389 -21.8125 72.375 C-21.214375 71.26125 -20.61625 70.1475 -20 69 C-21.53735867 65.72005139 -21.53735867 65.72005139 -22.95703125 63.75390625 C-24.71655043 60.79501444 -24.42391896 58.33079182 -24 55 C-23.06295743 52.9697411 -22.07074592 50.96303418 -21 49 C-20.7226499 45.81509993 -20.7226499 45.81509993 -23 43 C-23.30078125 40.2578125 -23.30078125 40.2578125 -23.3125 37.125 C-23.32925781 36.09632812 -23.34601563 35.06765625 -23.36328125 34.0078125 C-23 31 -23 31 -21.3671875 28.36328125 C-20.91601562 27.58339844 -20.46484375 26.80351563 -20 26 C-20.49615724 23.90419547 -20.49615724 23.90419547 -21.8125 22.0625 C-23.83636441 18.47871351 -24.72970923 16.19582808 -24 12 C-22.4375 9 -22.4375 9 -20 6 C-19.54882812 5.43539063 -19.09765625 4.87078125 -18.6328125 4.2890625 C-13.4121969 -1.24323165 -7.21120864 -1.33376239 0 0 Z " fill="#00AAB4" transform="translate(341,1318)"/>
<path d="M0 0 C3.4375 1.625 3.4375 1.625 6 4 C6.94875 4.845625 7.8975 5.69125 8.875 6.5625 C11.73907391 10.1934066 11.55981154 13.91926653 11.390625 18.390625 C11 21 11 21 9.25 24.25 C8.8375 25.1575 8.425 26.065 8 27 C9.62000995 30.21138378 9.62000995 30.21138378 10.98828125 32.2109375 C12.70257763 35.24239596 12.49084581 37.62543507 12 41 C10 44.4375 10 44.4375 8 47 C8.28875 47.5775 8.5775 48.155 8.875 48.75 C9.24625 49.4925 9.6175 50.235 10 51 C10.37125 51.598125 10.7425 52.19625 11.125 52.8125 C12.40969517 56.02423794 12.29581316 58.56856734 12 62 C10.5625 65.3125 10.5625 65.3125 9 68 C8.67 68.66 8.34 69.32 8 70 C11.35972452 71.67986226 15.15903397 71.18091527 18.85595703 71.20532227 C19.77308472 71.21522186 20.6902124 71.22512146 21.63513184 71.23532104 C24.67599885 71.26698715 27.71688151 71.29171366 30.7578125 71.31640625 C32.86246148 71.33697136 34.96710629 71.35796771 37.07174683 71.37937927 C42.61851631 71.43464565 48.16532334 71.48403478 53.7121582 71.53222656 C59.36933749 71.58240828 65.02646207 71.6381117 70.68359375 71.69335938 C81.78901579 71.80099679 92.89448528 71.90242934 104 72 C104 75.96 104 79.92 104 84 C73.31 84 42.62 84 11 84 C10.34 85.65 9.68 87.3 9 89 C4.74356027 93.15970246 0.92763884 95.94338539 -5.16796875 96.03125 C-11.8579359 95.58301099 -15.83578154 93.39203093 -20.375 88.375 C-22.51493095 83.93052803 -22.8903648 79.86091055 -22 75 C-21.01651634 73.65443778 -20.01860386 72.31917549 -19 71 C-19.7099968 68.41819347 -20.75261307 66.41231155 -22.125 64.125 C-23.43004154 60.95561339 -23.29749549 58.39144854 -23 55 C-22.05273046 53.30280873 -21.05771739 51.63064764 -20 50 C-19.63019987 45.95377498 -19.63019987 45.95377498 -22 43 C-22.30078125 40.2578125 -22.30078125 40.2578125 -22.3125 37.125 C-22.32925781 36.09632812 -22.34601563 35.06765625 -22.36328125 34.0078125 C-21.95707915 30.6446338 -20.92437719 28.7520117 -19 26 C-19.495 25.401875 -19.99 24.80375 -20.5 24.1875 C-22.71755689 19.4751916 -22.67044497 15.12250089 -22 10 C-17.44897289 0.37282727 -9.89309883 -1.33359517 0 0 Z " fill="#00AAB5" transform="translate(510,1318)"/>
<path d="M0 0 C-0.66 4.95 -1.32 9.9 -2 15 C-4.145 15.66 -6.29 16.32 -8.5 17 C-26.70713725 22.9394313 -41.08019904 32.90904884 -55 46 C-55.60199219 46.53753906 -56.20398438 47.07507813 -56.82421875 47.62890625 C-67.28189483 57.35527631 -74.23075815 70.11300026 -80 83 C-80.40992188 83.90878906 -80.81984375 84.81757812 -81.2421875 85.75390625 C-86.85945953 99.66645209 -88.2937657 114.61942983 -88.7121582 129.46826172 C-89.69020649 164.15374367 -104.42997614 195.40838204 -129.21875 219.44921875 C-141.13552526 230.37850842 -141.13552526 230.37850842 -146 232 C-146.70133599 230.42274653 -147.385583 228.83788667 -148.0625 227.25 C-148.63677734 225.92742187 -148.63677734 225.92742187 -149.22265625 224.578125 C-150.10316245 221.65785317 -150.33858816 220.72460662 -149 218 C-147.06476075 216.03557162 -145.13926562 214.23820098 -143.0625 212.4375 C-118.45729883 190.2918068 -104.63234446 162.54656883 -102.85693359 129.32275391 C-102.72896949 126.48629858 -102.61220797 123.6496204 -102.5 120.8125 C-101.15719155 88.03678371 -88.89712858 60.46126074 -66 37 C-64.85144531 35.74123047 -64.85144531 35.74123047 -63.6796875 34.45703125 C-49.54965895 19.39298386 -21.66797716 0 0 0 Z " fill="#00A9B4" transform="translate(490,558)"/>
<path d="M0 0 C80.19 0 160.38 0 243 0 C243 4.62 243 9.24 243 14 C162.81 14 82.62 14 0 14 C0 9.38 0 4.76 0 0 Z " fill="#00A7B3" transform="translate(506,39)"/>
<path d="M0 0 C4.50293372 -0.06888341 9.00403919 -0.12860848 13.50708008 -0.16479492 C15.03871861 -0.17987936 16.57031398 -0.20034978 18.10180664 -0.22631836 C20.30365654 -0.26271847 22.50493533 -0.27972913 24.70703125 -0.29296875 C25.39150833 -0.30845261 26.07598541 -0.32393646 26.78120422 -0.33988953 C31.52199726 -0.34156687 31.52199726 -0.34156687 33.68233204 1.20214558 C35.44863584 3.61212836 35.36971549 5.13121829 35.36076355 8.10624695 C35.36488754 9.1621402 35.36901154 10.21803345 35.3732605 11.30592346 C35.36247467 12.46397995 35.35168884 13.62203644 35.34057617 14.81518555 C35.34123329 16.64463715 35.34123329 16.64463715 35.34190369 18.51104736 C35.34017042 21.85602168 35.32511444 25.20044211 35.30418181 28.54531837 C35.28544141 32.04067847 35.28366666 35.53604577 35.28010559 39.03144836 C35.27077734 45.65066403 35.24615311 52.26973124 35.21605712 58.8888815 C35.18253729 66.42445784 35.1660332 73.96004122 35.15097082 81.49567354 C35.11960415 96.99720405 35.06622507 112.49857706 35 128 C42.26 128 49.52 128 57 128 C57 120.74 57 113.48 57 106 C61.62 106 66.24 106 71 106 C71.07416067 110.64473982 71.12860615 115.28913499 71.16479492 119.93432617 C71.17988094 121.51446536 71.2003525 123.09456269 71.22631836 124.67456055 C71.26271126 126.94590585 71.27972762 129.21669759 71.29296875 131.48828125 C71.30845261 132.19463211 71.32393646 132.90098297 71.33988953 133.6287384 C71.34155396 138.48011821 71.34155396 138.48011821 69.89013672 140.68933105 C67.07658503 142.64031946 64.81590262 142.35942275 61.41723633 142.34057617 C60.75355545 142.34101425 60.08987457 142.34145233 59.40608215 142.34190369 C57.21443161 142.33981519 55.02354799 142.31648268 52.83203125 142.29296875 C51.3117464 142.28737298 49.79145614 142.28310279 48.27116394 142.28010559 C44.27122035 142.26865524 40.27160394 142.23918672 36.27178955 142.20599365 C32.1897016 142.17529669 28.10756075 142.16160107 24.02539062 142.14648438 C16.01676026 142.11431688 8.00845853 142.06154769 0 142 C0 137.38 0 132.76 0 128 C7.26 128 14.52 128 22 128 C22 90.38 22 52.76 22 14 C14.74 14 7.48 14 0 14 C0 9.38 0 4.76 0 0 Z " fill="#00A8B3" transform="translate(953,600)"/>
<path d="M0 0 C24.65197661 -0.56962205 46.20962135 4.23281659 64.65625 21.5703125 C78.14477717 35.553419 84.43853824 52.3075268 84.36352539 71.49804688 C84.00776773 90.56033292 76.2661297 108.01000093 62.609375 121.33203125 C48.5074545 133.72398834 31.00053144 140.22344441 12.3125 140.125 C11.19391602 140.13080078 11.19391602 140.13080078 10.05273438 140.13671875 C6.4637444 140.13031556 3.50621715 139.87655429 0 139 C0 134.71 0 130.42 0 126 C1.6396875 125.95101562 3.279375 125.90203125 4.96875 125.8515625 C7.14584884 125.77649013 9.3229314 125.70094425 11.5 125.625 C12.57765625 125.5940625 13.6553125 125.563125 14.765625 125.53125 C20.81912159 125.30978061 26.19657964 124.74747435 32 123 C32.84046875 122.75121094 33.6809375 122.50242187 34.546875 122.24609375 C47.92365891 117.33652944 58.09795751 107.54094395 64.8125 95.125 C71.12946462 81.35999264 72.494154 65.51266746 67.39453125 51.1328125 C60.16942644 34.90162467 49.6771758 24.66822369 33.1875 18.125 C25.52553582 15.25057369 18.22407344 14.7722178 10.125 14.4375 C9.15046875 14.39431641 8.1759375 14.35113281 7.171875 14.30664062 C4.78139113 14.2011781 2.39071252 14.10014571 0 14 C0 9.38 0 4.76 0 0 Z " fill="#00ABB6" transform="translate(0,438)"/>
<path d="M0 0 C7.11376047 2.8196751 11.68160279 8.26234244 15 15 C20.24094684 27.73501102 20.4485724 39.95531401 16 53 C12.51859331 60.04721113 7.39251173 65.58411855 0.5 69.375 C-6.12422134 71.03105533 -10.76902229 69.78917302 -16.63671875 66.6015625 C-24.65849007 61.16532078 -27.49331899 52.02672402 -29.75 43 C-30.85093167 29.78882001 -29.27950794 17.79019206 -21 7 C-14.49570881 0.34665214 -9.35847811 -1.1741264 0 0 Z " fill="#00A9B4" transform="translate(919,403)"/>
<path d="M0 0 C8.33907243 5.49620683 13.39060175 13.23546264 15.75 22.8125 C16.18932514 26.26184152 16.27453299 29.65023631 16.25 33.125 C16.24572998 34.04490723 16.24145996 34.96481445 16.23706055 35.91259766 C16.05103113 43.37349461 14.60856734 49.34621956 10.75 55.8125 C10.34265625 56.51632812 9.9353125 57.22015625 9.515625 57.9453125 C6.30724357 62.9245538 2.33578994 65.95057002 -3.25 67.8125 C-8.35475355 68.30133825 -12.79450965 68.48426478 -17.5 66.3125 C-25.63542253 58.91666134 -31.18390206 51.52531845 -31.78125 40.15625 C-31.79170861 38.20833356 -31.78112164 36.26019589 -31.75 34.3125 C-31.76546875 33.34441406 -31.7809375 32.37632812 -31.796875 31.37890625 C-31.74747674 22.17848111 -29.03966193 14.04957741 -23.25 6.8125 C-16.20260007 -0.07765571 -9.84682564 -3.5978786 0 0 Z " fill="#00A8B3" transform="translate(927.25,875.1875)"/>
<path d="M0 0 C60.72 0 121.44 0 184 0 C184 4.29 184 8.58 184 13 C123.28 13 62.56 13 0 13 C0 8.71 0 4.42 0 0 Z " fill="#00A8B3" transform="translate(0,172)"/>
<path d="M0 0 C2.52689713 1.6415175 3.56164774 2.43090184 5 5 C5.75211088 9.52712304 5.63047102 14.02372181 5.56762695 18.6027832 C5.56621588 20.00251718 5.56700963 21.40225486 5.56983948 22.80198669 C5.57127276 26.59528345 5.5418983 30.387788 5.50696969 34.18090081 C5.47569101 38.14734892 5.47277428 42.11381564 5.46684265 46.08036804 C5.45130857 53.58856156 5.41028627 61.0963906 5.3600952 68.6044237 C5.30418797 77.15329763 5.27671181 85.70218906 5.25161803 94.25120032 C5.1993698 111.83435024 5.11042791 129.41712264 5 147 C1.37 147 -2.26 147 -6 147 C-6 102.12 -6 57.24 -6 11 C-13.89872953 15.93670596 -18.66574287 19.01512234 -21 28 C-21.36990476 31.62081243 -21.5067328 35.23828345 -21.625 38.875 C-21.68300781 40.33679687 -21.68300781 40.33679687 -21.7421875 41.828125 C-21.835926 44.21845683 -21.91902822 46.60920166 -22 49 C-25.3 49 -28.6 49 -32 49 C-32.11735877 45.02108648 -32.18763654 41.0426254 -32.25 37.0625 C-32.30027344 35.38704102 -32.30027344 35.38704102 -32.3515625 33.67773438 C-32.47282727 23.33991273 -29.9668524 16.36987104 -22.9296875 8.7890625 C-17.0800992 3.36575999 -8.2896504 -2.24511365 0 0 Z " fill="#00A9B4" transform="translate(642,1301)"/>
<path d="M0 0 C2.53401527 1.64121363 3.56246782 2.42481881 5 5 C5.75163775 9.52724697 5.63047182 14.02366341 5.56762695 18.6027832 C5.56621588 20.00251718 5.56700963 21.40225486 5.56983948 22.80198669 C5.57127276 26.59528345 5.5418983 30.387788 5.50696969 34.18090081 C5.47569101 38.14734892 5.47277428 42.11381564 5.46684265 46.08036804 C5.45130857 53.58856156 5.41028627 61.0963906 5.3600952 68.6044237 C5.30418797 77.15329763 5.27671181 85.70218906 5.25161803 94.25120032 C5.19936981 111.83434429 5.11143629 129.41713359 5 147 C1.7 147 -1.6 147 -5 147 C-5 102.12 -5 57.24 -5 11 C-14.01657721 15.44668329 -14.01657721 15.44668329 -19.09375 23.484375 C-20.36937903 28.4329359 -20.46731787 33.28318128 -20.625 38.375 C-20.68300781 39.90833984 -20.68300781 39.90833984 -20.7421875 41.47265625 C-20.83597566 43.98148965 -20.91905546 46.49071938 -21 49 C-24.3 49 -27.6 49 -31 49 C-31.14688806 44.87538319 -31.23460044 40.75145076 -31.3125 36.625 C-31.35439453 35.46871094 -31.39628906 34.31242187 -31.43945312 33.12109375 C-31.57515722 23.51324373 -29.09719217 17.60154265 -23.8125 9.75 C-17.80729365 3.87824268 -8.78677794 -2.15646199 0 0 Z " fill="#00A7B2" transform="translate(472,1301)"/>
<path d="M0 0 C50.82 0 101.64 0 154 0 C154 4.29 154 8.58 154 13 C103.18 13 52.36 13 0 13 C0 8.71 0 4.42 0 0 Z " fill="#00A7B2" transform="translate(94,1417)"/>
<path d="M0 0 C50.82 0 101.64 0 154 0 C154 4.29 154 8.58 154 13 C103.18 13 52.36 13 0 13 C0 8.71 0 4.42 0 0 Z " fill="#00A8B3" transform="translate(291,371)"/>
<path d="M0 0 C2.83331144 3.336563 4.14816077 6.69098404 5.6015625 10.80078125 C5.83969666 11.46601807 6.07783081 12.13125488 6.32318115 12.81665039 C7.09665112 14.97978159 7.86098853 17.146012 8.625 19.3125 C9.68818005 22.30371257 10.75658619 25.29302215 11.828125 28.28125 C12.09430634 29.02441971 12.36048767 29.76758942 12.63473511 30.53327942 C14.28677388 35.11433302 16.02631751 39.64450512 17.859375 44.15625 C18.28653809 45.20772217 18.71370117 46.25919434 19.15380859 47.3425293 C19.95113129 49.28163976 20.76083615 51.21571797 21.58447266 53.14379883 C21.93558105 53.99997803 22.28668945 54.85615723 22.6484375 55.73828125 C22.95958496 56.47087158 23.27073242 57.20346191 23.59130859 57.95825195 C24 60 24 60 23.28955078 62.10424805 C21.91953861 64.11828525 20.71607204 65.21469889 18.71875 66.59375 C18.05004883 67.06119629 17.38134766 67.52864258 16.69238281 68.01025391 C15.96889648 68.50187012 15.24541016 68.99348633 14.5 69.5 C13.75331055 70.0161084 13.00662109 70.5322168 12.23730469 71.06396484 C9.83202213 72.72003642 7.41692189 74.36097102 5 76 C4.18080078 76.55977539 3.36160156 77.11955078 2.51757812 77.69628906 C0.09995912 79.34657682 -2.32342563 80.98791391 -4.75 82.625 C-5.49958984 83.13353516 -6.24917969 83.64207031 -7.02148438 84.16601562 C-7.73111328 84.63974609 -8.44074219 85.11347656 -9.171875 85.6015625 C-9.7915918 86.01744629 -10.41130859 86.43333008 -11.04980469 86.86181641 C-13.28832535 88.16827401 -15.57694722 89.08886936 -18 90 C-19.24528941 66.95831419 -18.22257103 48.39086756 -9.17895508 26.93115234 C-7.75626927 23.39402957 -6.65280162 19.82096312 -5.62646484 16.15209961 C-4.80074841 13.31550944 -3.75893083 10.58233668 -2.6953125 7.828125 C-1.71326817 5.24612082 -0.85368925 2.62673614 0 0 Z " fill="#00CBD6" transform="translate(18,1226)"/>
<path d="M0 0 C48.84 0 97.68 0 148 0 C148 3.96 148 7.92 148 12 C98.83 12 49.66 12 -1 12 C-0.67 8.04 -0.34 4.08 0 0 Z " fill="#00A7B2" transform="translate(290,120)"/>
<path d="M0 0 C2.72601657 1.02915911 4.07204311 2.49298265 6.05859375 4.61328125 C8.93534385 7.60723228 11.85014516 10.23706479 15.12109375 12.80078125 C16.83102809 14.42302665 18.49457059 16.0949155 20.12109375 17.80078125 C20.66507813 18.34992188 21.2090625 18.8990625 21.76953125 19.46484375 C24.31167327 22.17407492 25.93287768 24.12030775 26.93359375 27.73828125 C25.66106417 32.5347389 22.55516997 35.33449043 19.12109375 38.80078125 C18.04408203 39.93386719 18.04408203 39.93386719 16.9453125 41.08984375 C12.97347608 45.19964158 12.97347608 45.19964158 11.12109375 46.80078125 C10.46109375 46.80078125 9.80109375 46.80078125 9.12109375 46.80078125 C8.91484375 47.35765625 8.70859375 47.91453125 8.49609375 48.48828125 C6.53970171 51.77857695 4.26368371 53.64410186 1.12109375 55.80078125 C-1.75390625 55.61328125 -1.75390625 55.61328125 -3.87890625 54.80078125 C-4.20890625 53.81078125 -4.53890625 52.82078125 -4.87890625 51.80078125 C-5.53890625 51.80078125 -6.19890625 51.80078125 -6.87890625 51.80078125 C-8.2890625 50.33203125 -8.2890625 50.33203125 -9.94140625 48.30078125 C-13.35593987 44.25232578 -17.10231013 40.86230254 -21.15625 37.46484375 C-21.72472656 36.91570312 -22.29320312 36.3665625 -22.87890625 35.80078125 C-22.87890625 35.14078125 -22.87890625 34.48078125 -22.87890625 33.80078125 C-23.86890625 33.47078125 -24.85890625 33.14078125 -25.87890625 32.80078125 C-27.40442301 29.74974772 -27.41692978 28.2213542 -26.87890625 24.80078125 C-24.67359266 21.68052184 -22.01789793 19.05525226 -19.31640625 16.36328125 C-18.61193359 15.63818359 -17.90746094 14.91308594 -17.18164062 14.16601562 C-15.09695509 12.02753175 -12.99014418 9.91301528 -10.87890625 7.80078125 C-10.21262207 7.12128418 -9.54633789 6.44178711 -8.85986328 5.74169922 C-8.23837402 5.11021973 -7.61688477 4.47874023 -6.9765625 3.828125 C-6.42621338 3.26730225 -5.87586426 2.70647949 -5.30883789 2.12866211 C-3.48687908 0.43673212 -2.51592924 -0.26676173 0 0 Z " fill="#00A8B3" transform="translate(188.87890625,447.19921875)"/>
<path d="M0 0 C3.97416103 0.7393788 5.47776568 3.33036271 7.6875 6.5 C10.1600087 10.58170619 12.45913462 14.75175128 14.75 18.9375 C15.96989292 21.14461923 17.18994084 23.3516528 18.41015625 25.55859375 C18.97613525 26.59201904 19.54211426 27.62544434 20.12524414 28.69018555 C21.41399582 31.0080857 22.75223499 33.27863183 24.125 35.546875 C26.13595321 39.34757657 25.88650536 41.42338176 24.6875 45.5 C21.6088599 47.55242673 20.93081703 47.75503162 17.44726562 47.79052734 C16.59628296 47.80328705 15.74530029 47.81604675 14.86853027 47.82919312 C13.49501404 47.83253159 13.49501404 47.83253159 12.09375 47.8359375 C10.6791449 47.8459227 10.6791449 47.8459227 9.23596191 47.85610962 C7.24212597 47.86623428 5.24825615 47.8709267 3.25439453 47.87060547 C0.19897964 47.87498355 -2.85499654 47.91131843 -5.91015625 47.94921875 C-7.84634922 47.95508588 -9.78254906 47.95905597 -11.71875 47.9609375 C-13.09226624 47.98249405 -13.09226624 47.98249405 -14.49353027 48.00448608 C-20.78527791 47.95899191 -20.78527791 47.95899191 -23.4140625 45.67041016 C-24.8342093 42.23967509 -24.22212906 40.07983048 -23.3125 36.5 C-22.00092325 33.39150532 -20.43648063 30.45524601 -18.8125 27.5 C-18.14734375 26.26455444 -18.14734375 26.26455444 -17.46875 25.00415039 C-4.40486321 0.95240286 -4.40486321 0.95240286 0 0 Z " fill="#00A8B3" transform="translate(318.3125,612.5)"/>
<path d="M0 0 C3.63 0 7.26 0 11 0 C11.33 12.54 11.66 25.08 12 38 C14.64 35.69 17.28 33.38 20 31 C23.875 30.375 23.875 30.375 27 31 C29.05035025 34.07552538 29.47755503 35.364101 28.82910156 38.95800781 C26.93875939 43.61372687 22.91579948 46.93456964 19.375 50.375 C18.57964844 51.19355469 17.78429687 52.01210937 16.96484375 52.85546875 C10.35950246 59.39573278 10.35950246 59.39573278 6.1171875 60.1796875 C1.73246391 59.92693401 0.04739467 58.04739467 -3 55 C-3.61875 54.443125 -4.2375 53.88625 -4.875 53.3125 C-6 52 -6 52 -6 50 C-6.556875 49.773125 -7.11375 49.54625 -7.6875 49.3125 C-10.66399068 47.62314043 -12.67627512 45.50247295 -15 43 C-15.8971875 42.0409375 -15.8971875 42.0409375 -16.8125 41.0625 C-18.43747422 38.24017636 -18.34775155 36.19931429 -18 33 C-16 31 -16 31 -12.875 30.375 C-9 31 -9 31 -1 39 C-0.67 26.13 -0.34 13.26 0 0 Z " fill="#00A9B4" transform="translate(559,1316)"/>
<path d="M0 0 C2.96695379 1.42953228 5.27796966 2.93820393 7.75 5.125 C8.36359375 5.66382813 8.9771875 6.20265625 9.609375 6.7578125 C10.29773438 7.37269531 10.29773438 7.37269531 11 8 C9.90055651 11.29833047 9.24345342 11.83739348 6.625 13.9375 C2.54413956 17.39499632 -0.99400691 21.19032332 -4.57080078 25.16040039 C-9.71974487 30.84646455 -15.10294467 36.28060079 -20.60058594 41.62890625 C-21.79441568 42.79857614 -22.96605406 43.99082467 -24.1328125 45.1875 C-25.875 46.875 -25.875 46.875 -29 49 C-34.75795965 48.87343767 -37.33273583 47.40020569 -41.27734375 43.30859375 C-41.96166222 42.61154076 -41.96166222 42.61154076 -42.6598053 41.90040588 C-44.10052037 40.42635031 -45.51885515 38.93277625 -46.9375 37.4375 C-47.91590709 36.42896814 -48.89571276 35.42179109 -49.87695312 34.41601562 C-52.2653914 31.95698311 -54.638702 29.48505909 -57 27 C-54.95933017 22.73384496 -52.41446998 20.26601476 -49 17 C-44.91633665 18.66518311 -41.93962215 21.54692877 -38.75 24.5 C-38.19570313 24.99886719 -37.64140625 25.49773437 -37.0703125 26.01171875 C-35.6714992 27.2968354 -34.33055746 28.64433768 -33 30 C-33 30.66 -33 31.32 -33 32 C-25.55764895 25.80413033 -18.81384685 18.9277465 -12 12.0625 C-10.83226626 10.88973991 -9.66429926 9.71721202 -8.49609375 8.54492188 C-5.66136766 5.69928311 -2.82981176 2.85052547 0 0 Z " fill="#00A9B4" transform="translate(320,1000)"/>
<path d="M0 0 C6.64374207 0.94015218 10.3969904 6.53803609 14.49609375 11.42578125 C16.31607872 13.47277509 18.26305683 15.21812433 20.3125 17.03125 C22.0625 18.73046875 22.0625 18.73046875 23.3125 20.46875 C23.3125 24.34375 23.3125 24.34375 22.3125 27.46875 C21.3125 28.46875 21.3125 28.46875 18.25 28.96875 C14.3125 28.46875 14.3125 28.46875 6.3125 21.46875 C5.9825 34.00875 5.6525 46.54875 5.3125 59.46875 C2.0125 59.46875 -1.2875 59.46875 -4.6875 59.46875 C-4.6875 46.59875 -4.6875 33.72875 -4.6875 20.46875 C-5.3475 20.46875 -6.0075 20.46875 -6.6875 20.46875 C-6.996875 21.3040625 -6.996875 21.3040625 -7.3125 22.15625 C-9.28485933 25.47339978 -11.49541117 27.32022867 -14.6875 29.46875 C-18.4738771 29.39593506 -19.99820077 29.15804923 -22.6875 26.46875 C-23.25 23.84375 -23.25 23.84375 -22.6875 20.46875 C-20.71862437 17.458319 -18.20275309 15.02620532 -15.6875 12.46875 C-14.7219436 11.41068925 -13.75853807 10.35066311 -12.796875 9.2890625 C-11.76194608 8.1808614 -10.72548452 7.07408963 -9.6875 5.96875 C-9.2018457 5.42782715 -8.71619141 4.8869043 -8.21582031 4.32958984 C-5.47003696 1.4877681 -3.96448087 0.50395943 0 0 Z " fill="#00A8B3" transform="translate(396.6875,1313.53125)"/>
<path d="M0 0 C32.34 0 64.68 0 98 0 C98 3.63 98 7.26 98 11 C65.66 11 33.32 11 0 11 C0 7.37 0 3.74 0 0 Z " fill="#00A8B3" transform="translate(515,1287)"/>
<path d="M0 0 C32.34 0 64.68 0 98 0 C98 3.63 98 7.26 98 11 C65.66 11 33.32 11 0 11 C0 7.37 0 3.74 0 0 Z " fill="#00A8B3" transform="translate(347,1287)"/>
<path d="M0 0 C10.125 3.375 10.125 3.375 13.59765625 4.82421875 C14.33564453 5.13037109 15.07363281 5.43652344 15.83398438 5.75195312 C16.56939453 6.06068359 17.30480469 6.36941406 18.0625 6.6875 C18.83271484 7.00783203 19.60292969 7.32816406 20.39648438 7.65820312 C22.26549549 8.43599036 24.13292153 9.2175848 26 10 C24.80448214 14.51827171 23.40361916 18.48807439 21.3125 22.6875 C11.05032981 44.53518593 5.08089825 68.30678488 1 92 C0.67 92 0.34 92 0 92 C0 61.64 0 31.28 0 0 Z " fill="#00D0D9" transform="translate(0,742)"/>
<path d="M0 0 C0.33 0 0.66 0 1 0 C1.1043335 0.66604248 1.20866699 1.33208496 1.31616211 2.01831055 C5.37444892 27.25960848 12.62886451 51.13835935 22.18139648 74.85131836 C23.20599296 77.54069313 24.10363103 80.26557516 25 83 C21.0222289 84.8363725 17.0425574 86.66858862 13.0625 88.5 C11.92619141 89.02464844 10.78988281 89.54929687 9.61914062 90.08984375 C7.99975586 90.83427734 7.99975586 90.83427734 6.34765625 91.59375 C5.34742432 92.05458984 4.34719238 92.51542969 3.31665039 92.99023438 C1 94 1 94 0 94 C0 62.98 0 31.96 0 0 Z " fill="#00D1D9" transform="translate(0,922)"/>
<path d="M0 0 C4.36055099 1.98733076 7.42583445 4.83823817 11 8 C13.31 5.69 15.62 3.38 18 1 C22.44995051 3.22497525 24.60084691 5.44633995 28 9 C26.44499019 12.81684226 23.96404505 15.19195732 21 18 C22.36370299 20.99220268 23.94908083 23.29026529 26.125 25.75 C26.66382813 26.36359375 27.20265625 26.9771875 27.7578125 27.609375 C28.16773438 28.06828125 28.57765625 28.5271875 29 29 C27.76600937 30.36877116 26.51219377 31.71969166 25.25 33.0625 C24.55390625 33.81660156 23.8578125 34.57070312 23.140625 35.34765625 C21 37 21 37 18.9375 36.9375 C16.74247677 35.87539198 15.41352341 34.71444546 13.75 32.9375 C13.22921875 32.38964844 12.7084375 31.84179688 12.171875 31.27734375 C11.78515625 30.85582031 11.3984375 30.43429687 11 30 C7.05860922 31.66751148 4.2107188 34.22710649 1 37 C-6.66742597 31.03416856 -6.66742597 31.03416856 -8 26 C-7.34 26 -6.68 26 -6 26 C-6 25.34 -6 24.68 -6 24 C-4.37373596 22.61767557 -2.7074998 21.28062485 -1 20 C-1.57575664 16.64749299 -2.59306263 15.06181371 -5.0625 12.75 C-5.61035156 12.22921875 -6.15820312 11.7084375 -6.72265625 11.171875 C-7.14417969 10.78515625 -7.56570313 10.3984375 -8 10 C-6.34908222 5.70761377 -3.26245434 3.1206085 0 0 Z " fill="#00A8B3" transform="translate(533,1039)"/>
<path d="M0 0 C5.75 4.625 5.75 4.625 8 8 C11.04893116 6.87076624 12.64541574 5.3656342 14.625 2.875 C15.40875 1.92625 16.1925 0.9775 17 0 C17.66 0 18.32 0 19 0 C19 0.66 19 1.32 19 2 C19.66 2 20.32 2 21 2 C22.35386936 3.65002828 23.68678142 5.3174387 25 7 C25.66 7.33 26.32 7.66 27 8 C25.82585685 10.88198773 24.67796428 12.30670069 22.375 14.5 C19.54083369 16.90861986 19.54083369 16.90861986 20 21 C20.66 21 21.32 21 22 21 C23.38232443 22.62626404 24.71937515 24.2925002 26 26 C23.99892742 30.6489565 20.8751729 32.84245171 17 36 C14.69 33.69 12.38 31.38 10 29 C6.09567131 30.95216435 3.96160056 32.87386607 1 36 C-3.2742558 34.4169423 -5.26531794 31.49431596 -8 28 C-6.33248852 24.05860922 -3.77289351 21.2107188 -1 18 C-1.51691406 17.54109375 -2.03382813 17.0821875 -2.56640625 16.609375 C-3.22511719 15.99578125 -3.88382813 15.3821875 -4.5625 14.75 C-5.22378906 14.14671875 -5.88507813 13.5434375 -6.56640625 12.921875 C-8 11 -8 11 -7.9375 9 C-6.79256788 6.55747814 -5.39460957 5.10035814 -3.4375 3.25 C-2.79683594 2.63640625 -2.15617188 2.0228125 -1.49609375 1.390625 C-1.00238281 0.93171875 -0.50867188 0.4728125 0 0 Z " fill="#00A9B4" transform="translate(171,572)"/>
<path d="M0 0 C3.79840797 1.50353649 5.9885277 3.71115113 8 7.1875 C10.19316039 12.33299169 10.36635001 17.06110811 10.375 22.5625 C10.39949219 23.37460937 10.42398438 24.18671875 10.44921875 25.0234375 C10.48195744 31.83308569 8.71587191 37.09702506 4.1875 42.25 C0.63074329 43.7743243 -1.35185934 43.40354689 -5 42.1875 C-10.2075112 36.2075191 -11.19999193 30.23249787 -11.25 22.5 C-11.270625 21.72205078 -11.29125 20.94410156 -11.3125 20.14257812 C-11.35897845 13.17661983 -9.9692686 7.79545031 -5.6875 2.125 C-3 0.1875 -3 0.1875 0 0 Z " fill="#00D0D9" transform="translate(914,415.8125)"/>
<path d="M0 0 C3.41023173 0.78151144 4.76336269 2.06933699 6.921875 4.7890625 C11.14215778 12.22043 11.04353632 21.38103055 10 29.6875 C8.37205185 34.91571809 6.59320402 38.62536399 2 41.6875 C-0.875 42.1875 -0.875 42.1875 -4 41.6875 C-8.86776456 37.04099746 -10.76332875 32.68123758 -11.30078125 25.8828125 C-11.32009342 24.52617349 -11.3235747 23.16923126 -11.3125 21.8125 C-11.30758545 21.10504639 -11.3026709 20.39759277 -11.29760742 19.66870117 C-11.14002239 12.6581876 -10.0125524 8.29837879 -5.6875 2.6875 C-3 0.6875 -3 0.6875 0 0 Z " fill="#00D0D9" transform="translate(920,887.3125)"/>
<path d="M0 0 C4.62 0 9.24 0 14 0 C14 15.84 14 31.68 14 48 C9.38 48 4.76 48 0 48 C0 32.16 0 16.32 0 0 Z " fill="#00A7B2" transform="translate(988,63)"/>
<path d="M0 0 C2.489131 0.98867954 3.8372627 2.38624739 5.67060852 4.32536316 C6.28420227 4.96602722 6.89779602 5.60669128 7.52998352 6.26676941 C7.98888977 6.76048035 8.44779602 7.25419128 8.92060852 7.76286316 C7.63010329 10.59065327 6.26658826 12.67694506 4.09492493 14.89494324 C3.52738495 15.47847061 2.95984497 16.06199799 2.37510681 16.66320801 C1.763638 17.28003952 1.15216919 17.89687103 0.52217102 18.53239441 C-0.10919769 19.1727916 -0.74056641 19.81318878 -1.3910675 20.47299194 C-2.72486655 21.82127247 -4.06147266 23.16678109 -5.40068054 24.50968933 C-7.45233527 26.57329497 -9.48460071 28.65481672 -11.51689148 30.73747253 C-12.81521868 32.0452578 -14.11466053 33.35193763 -15.41532898 34.65739441 C-16.02274933 35.28434708 -16.63016968 35.91129974 -17.2559967 36.55725098 C-18.99491882 38.27775574 -18.99491882 38.27775574 -22.07939148 40.76286316 C-25.49855003 40.33965312 -27.30217975 38.98457376 -29.82939148 36.70036316 C-30.44298523 36.1525116 -31.05657898 35.60466003 -31.68876648 35.04020691 C-32.14767273 34.61868347 -32.60657898 34.19716003 -33.07939148 33.76286316 C-32.49557491 30.52963909 -31.56999456 28.87079086 -29.2754364 26.53898621 C-28.68780014 25.93543808 -28.10016388 25.33188995 -27.49472046 24.71005249 C-26.53696465 23.75199455 -26.53696465 23.75199455 -25.55986023 22.77458191 C-24.90488052 22.11198868 -24.24990082 21.44939545 -23.57507324 20.76672363 C-22.18936308 19.37021634 -20.79966338 17.97765806 -19.40629578 16.58879089 C-17.27127225 14.45474193 -15.15846698 12.30025796 -13.04618835 10.14372253 C-11.69788132 8.79021041 -10.34831368 7.43795263 -8.99736023 6.08708191 C-8.36492905 5.43825546 -7.73249786 4.78942902 -7.0809021 4.12094116 C-6.48380936 3.53315384 -5.88671661 2.94536652 -5.27153015 2.33976746 C-4.75048203 1.81666489 -4.2294339 1.29356232 -3.69259644 0.75460815 C-2.07939148 -0.23713684 -2.07939148 -0.23713684 0 0 Z " fill="#00A7B3" transform="translate(312.0793914794922,295.2371368408203)"/>
<path d="M0 0 C2.35591863 0.83376515 3.46192241 1.74626283 5.20892334 3.51625061 C5.78922302 4.09677689 6.36952271 4.67730316 6.96740723 5.27542114 C7.58110168 5.90459946 8.19479614 6.53377777 8.8270874 7.18202209 C9.46511292 7.82429245 10.10313843 8.46656281 10.76049805 9.1282959 C12.79505358 11.1796331 14.81892619 13.24115858 16.8427124 15.30311584 C18.22092731 16.69637818 19.59982565 18.08896483 20.97943115 19.48085022 C24.35850286 22.89298449 27.72803104 26.31429291 31.0927124 29.74061584 C29.58324729 32.92148103 28.01329415 35.0393149 25.4677124 37.49061584 C24.83607178 38.10420959 24.20443115 38.71780334 23.5536499 39.34999084 C22.83048584 40.03835022 22.83048584 40.03835022 22.0927124 40.74061584 C14.97366013 34.93378366 8.61896428 28.3777614 2.1552124 21.86561584 C0.98292036 20.68829946 -0.18960374 19.5112141 -1.36236572 18.33436584 C-4.21335742 15.47244095 -7.06118375 12.60740128 -9.9072876 9.74061584 C-8.53965621 6.91225483 -7.21333767 4.70522253 -5.0322876 2.42811584 C-4.29365479 1.62954163 -4.29365479 1.62954163 -3.5401001 0.81483459 C-1.9072876 -0.25938416 -1.9072876 -0.25938416 0 0 Z " fill="#00A7B3" transform="translate(424.90728759765625,295.25938415527344)"/>
<path d="M0 0 C4.77884152 2.25553081 8.60876564 5.23776981 11.875 9.375 C13.70741546 11.63857204 15.42696484 13.31037797 17.625 15.1875 C21.01511516 18.10979209 24.32320586 21.09813112 27.5625 24.1875 C28.86380859 25.41533203 28.86380859 25.41533203 30.19140625 26.66796875 C32 29 32 29 32 31.06640625 C30.78489782 33.41592024 29.3582017 34.93406385 27.4375 36.75 C26.47650391 37.67039062 26.47650391 37.67039062 25.49609375 38.609375 C25.00238281 39.06828125 24.50867188 39.5271875 24 40 C20.92171162 38.618406 18.71968886 37.01022464 16.27734375 34.69140625 C15.57851074 34.03172852 14.87967773 33.37205078 14.15966797 32.69238281 C13.42635254 31.98952148 12.69303711 31.28666016 11.9375 30.5625 C11.1861377 29.84545898 10.43477539 29.12841797 9.66064453 28.38964844 C8.14793877 26.94265619 6.63749255 25.49329785 5.12939453 24.04150391 C3.23411393 22.22445089 1.32228608 20.42760771 -0.59765625 18.63671875 C-1.60762416 17.67537486 -2.61680644 16.71320455 -3.625 15.75 C-4.50414062 14.91984375 -5.38328125 14.0896875 -6.2890625 13.234375 C-8 11 -8 11 -7.99609375 8.9375 C-6.78529545 6.5823786 -5.36029569 5.06791593 -3.4375 3.25 C-2.79683594 2.63640625 -2.15617187 2.0228125 -1.49609375 1.390625 C-1.00238281 0.93171875 -0.50867188 0.4728125 0 0 Z " fill="#00A8B3" transform="translate(295,174)"/>
<path d="M0 0 C3.18086518 1.50946511 5.29869906 3.07941825 7.75 5.625 C8.67039062 6.57246094 8.67039062 6.57246094 9.609375 7.5390625 C10.29773438 8.26222656 10.29773438 8.26222656 11 9 C3.70800785 17.91243485 -4.54613074 26.06760719 -13.30859375 33.53125 C-15.66285302 35.57559523 -17.83014011 37.76233199 -20 40 C-22.93879484 38.64763423 -25.29232911 37.10057341 -27.75 35 C-28.36359375 34.484375 -28.9771875 33.96875 -29.609375 33.4375 C-31 32 -31 32 -31 30 C-30.34 30 -29.68 30 -29 30 C-29 29.34 -29 28.68 -29 28 C-27.63671875 26.65795898 -27.63671875 26.65795898 -25.6875 25.05859375 C-20.16015051 20.35864071 -15.10357873 15.21244309 -10 10.0625 C-9.02497614 9.0824469 -8.0497172 8.1026276 -7.07421875 7.12304688 C-4.71383382 4.75097687 -2.35583095 2.3765914 0 0 Z " fill="#00A7B3" transform="translate(440,174)"/>
<path d="M0 0 C4.62 0 9.24 0 14 0 C14 13.2 14 26.4 14 40 C9.38 40 4.76 40 0 40 C0 26.8 0 13.6 0 0 Z " fill="#00A8B3" transform="translate(231,233)"/>
<path d="M0 0 C4.62 0 9.24 0 14 0 C14 13.2 14 26.4 14 40 C9.38 40 4.76 40 0 40 C0 26.8 0 13.6 0 0 Z " fill="#00A8B3" transform="translate(491,233)"/>
<path d="M0 0 C4.62 0 9.24 0 14 0 C14 7.59 14 15.18 14 23 C9.38 23 4.76 23 0 23 C0 15.41 0 7.82 0 0 Z " fill="#00A8B3" transform="translate(988,203)"/>
<path d="M0 0 C9.31543624 7.81208054 9.31543624 7.81208054 12 11 C11.8125 13.3125 11.8125 13.3125 11 15 C10.34 15 9.68 15 9 15 C9 15.66 9 16.32 9 17 C7.609375 18.54296875 7.609375 18.54296875 5.75 20.1875 C5.14671875 20.73792969 4.5434375 21.28835938 3.921875 21.85546875 C2 23 2 23 0.0625 22.9609375 C-2.80535837 21.62477621 -4.56824856 19.71550518 -6.75 17.4375 C-7.54921875 16.61121094 -8.3484375 15.78492188 -9.171875 14.93359375 C-9.77515625 14.29550781 -10.3784375 13.65742188 -11 13 C-9.46356148 9.31930113 -7.21849055 7.01224796 -4.375 4.25 C-3.55773437 3.45078125 -2.74046875 2.6515625 -1.8984375 1.828125 C-0.95871094 0.92320312 -0.95871094 0.92320312 0 0 Z " fill="#00CCD6" transform="translate(188,463)"/>
<path d="M0 0 C3.3 0 6.6 0 10 0 C10 8.58 10 17.16 10 26 C6.7 26 3.4 26 0 26 C0 17.42 0 8.84 0 0 Z " fill="#00A8B3" transform="translate(369,1422)"/>
<path d="M0 0 C2.97 0 5.94 0 9 0 C9 8.58 9 17.16 9 26 C6.03 26 3.06 26 0 26 C0 17.42 0 8.84 0 0 Z " fill="#00A7B2" transform="translate(538,1422)"/>
<path d="M0 0 C0.66 0.33 1.32 0.66 2 1 C-11.33230471 18.19372686 -11.33230471 18.19372686 -16.625 24.875 C-17.19476563 25.59429688 -17.76453125 26.31359375 -18.3515625 27.0546875 C-20.13100364 29.15459671 -22.02877053 31.08041847 -24 33 C-24.94213145 27.36029648 -25.88755651 21.52620431 -24 16 C-20.33314695 11.70088808 -14.95335945 9.40831635 -9.94921875 6.99169922 C-6.28153035 5.12569843 -3.21264756 2.54334599 0 0 Z " fill="#00CCD6" transform="translate(24,1315)"/>
<path d="M0 0 C0.66 0 1.32 0 2 0 C2.98484108 1.74681293 3.96266187 3.4975851 4.9375 5.25 C5.48277344 6.22453125 6.02804687 7.1990625 6.58984375 8.203125 C8 11 8 11 9 15 C3.72 15 -1.56 15 -7 15 C-5.57148766 11.42871914 -4.10525515 8.10247728 -2.375 4.6875 C-1.70597656 3.36298828 -1.70597656 3.36298828 -1.0234375 2.01171875 C-0.68570312 1.34785156 -0.34796875 0.68398438 0 0 Z " fill="#00CED8" transform="translate(318,632)"/>
<path d="M0 0 C2.97 0 5.94 0 9 0 C9 4.62 9 9.24 9 14 C6.03 14 3.06 14 0 14 C0 9.38 0 4.76 0 0 Z " fill="#00A7B2" transform="translate(0,1422)"/>
<path d="M0 0 C4.29 0 8.58 0 13 0 C10.73071895 5.67320261 10.73071895 5.67320261 7.625 8.25 C7.03976562 8.75015625 6.45453125 9.2503125 5.8515625 9.765625 C4 11 4 11 0 12 C0 8.04 0 4.08 0 0 Z " fill="#00D1DA" transform="translate(685,1153)"/>
<path d="M0 0 C5.66993464 1.13398693 5.66993464 1.13398693 8.6875 3.8125 C9.26886719 4.31394531 9.85023438 4.81539062 10.44921875 5.33203125 C12 7 12 7 14 11 C9.38 11 4.76 11 0 11 C0 7.37 0 3.74 0 0 Z " fill="#00D2DB" transform="translate(413,1210)"/>
<path d="M0 0 C4.29 0 8.58 0 13 0 C10.81439265 5.22117311 8.51605998 7.77424287 4 11 C2.68 11.33 1.36 11.66 0 12 C0 8.04 0 4.08 0 0 Z " fill="#00D1DA" transform="translate(413,1153)"/>
<path d="M0 0 C0 3.63 0 7.26 0 11 C-4.62 11 -9.24 11 -14 11 C-11.33734591 6.56224318 -10.47637795 5.26253421 -6.4375 2.6875 C-5.65246094 2.17574219 -4.86742187 1.66398437 -4.05859375 1.13671875 C-2 0 -2 0 0 0 Z " fill="#00D2DB" transform="translate(549,1210)"/>
<path d="M0 0 C4.29 0 8.58 0 13 0 C13 3.63 13 7.26 13 11 C9.00892402 10.002231 7.77252804 9.25737015 4.8125 6.625 C4.11769531 6.01914063 3.42289063 5.41328125 2.70703125 4.7890625 C1 3 1 3 0 0 Z " fill="#00D1DA" transform="translate(536,1153)"/>
<path d="M0 0 C4.29 0 8.58 0 13 0 C13 3.63 13 7.26 13 11 C9.25157565 10.06289391 8.12735449 9.58216966 5.375 7.1875 C4.78460937 6.68605469 4.19421875 6.18460938 3.5859375 5.66796875 C2 4 2 4 0 0 Z " fill="#00CFD9" transform="translate(808,1153)"/>
<path d="M0 0 C5.25885006 2.4065924 9.20305152 4.49112368 13 9 C13 9.66 13 10.32 13 11 C8.71 11 4.42 11 0 11 C0 7.37 0 3.74 0 0 Z " fill="#00D2DB" transform="translate(685,1210)"/>
<path d="M0 0 C0 3.63 0 7.26 0 11 C-4.29 11 -8.58 11 -13 11 C-10.29998255 6.35596999 -5.97310565 0 0 0 Z " fill="#00CFD8" transform="translate(821,1210)"/>
<path d="M0 0 C2.625 0.25 2.625 0.25 4.5 1.5 C5.625 3.25 5.625 3.25 5.4375 5.3125 C4.625 7.25 4.625 7.25 2.625 9.25 C0.125 9.5 0.125 9.5 -2.375 9.25 C-3.035 8.59 -3.695 7.93 -4.375 7.25 C-3.67467427 0.38680782 -3.67467427 0.38680782 0 0 Z " fill="#00CDD7" transform="translate(334.375,1349.75)"/>
<path d="M0 0 C2.31 0.33 4.62 0.66 7 1 C7.6875 3.3125 7.6875 3.3125 8 6 C6.9375 7.875 6.9375 7.875 5 9 C1.8125 8.6875 1.8125 8.6875 -1 8 C-1.625 5.6875 -1.625 5.6875 -2 3 C-1.34 2.01 -0.68 1.02 0 0 Z " fill="#00CBD5" transform="translate(332,1393)"/>
<path d="M0 0 C2.5 0.25 2.5 0.25 4.5 2.25 C4.75 4.75 4.75 4.75 4.5 7.25 C2.5 9.25 2.5 9.25 0 9.5 C-2.5 9.25 -2.5 9.25 -4.5 7.25 C-4.75 4.75 -4.75 4.75 -4.5 2.25 C-2.5 0.25 -2.5 0.25 0 0 Z " fill="#00CFD8" transform="translate(504.5,1371.75)"/>
<path d="M0 0 C2.5625 0.1875 2.5625 0.1875 4.5625 2.1875 C4.8125 4.6875 4.8125 4.6875 4.5625 7.1875 C2.5625 9.1875 2.5625 9.1875 0.0625 9.5 C-1.175 9.3453125 -1.175 9.3453125 -2.4375 9.1875 C-4.4375 6.1875 -4.4375 6.1875 -4.125 3.5625 C-3.16420807 0.24340062 -3.16420807 0.24340062 0 0 Z " fill="#00CDD6" transform="translate(334.4375,1371.8125)"/>
<path d="M0 0 C4.55555556 0.55555556 4.55555556 0.55555556 6 2 C6.1875 4.4375 6.1875 4.4375 6 7 C4 9 4 9 1.5 9.25 C-1 9 -1 9 -3 7 C-2.67028521 3.70285207 -2.3773161 2.3773161 0 0 Z " fill="#00CDD6" transform="translate(503,1393)"/>
<path d="M0 0 C2.5625 0.1875 2.5625 0.1875 4.5625 2.1875 C4.8125 4.6875 4.8125 4.6875 4.5625 7.1875 C3.9025 7.8475 3.2425 8.5075 2.5625 9.1875 C-0.73464793 8.85778521 -2.0601839 8.5648161 -4.4375 6.1875 C-3.71780303 0.28598485 -3.71780303 0.28598485 0 0 Z " fill="#00D0DA" transform="translate(504.4375,1350.8125)"/>
<path d="M0 0 C2.5625 0.1875 2.5625 0.1875 4.5625 2.1875 C4.00694444 6.74305556 4.00694444 6.74305556 2.5625 8.1875 C0.125 8.375 0.125 8.375 -2.4375 8.1875 C-3.0975 7.5275 -3.7575 6.8675 -4.4375 6.1875 C-3.71780303 0.28598485 -3.71780303 0.28598485 0 0 Z " fill="#00D3DB" transform="translate(504.4375,1329.8125)"/>
<path d="M0 0 C3 0.125 3 0.125 4 1.125 C4.1875 3.5625 4.1875 3.5625 4 6.125 C2 8.125 2 8.125 -0.5625 8.3125 C-3 8.125 -3 8.125 -4 7.125 C-4.125 4.125 -4.125 4.125 -4 1.125 C-3 0.125 -3 0.125 0 0 Z " fill="#00CED7" transform="translate(335,1329.875)"/>
<path d="M0 0 C1 2 1 2 0.22265625 4.6015625 C-0.16019531 5.59929687 -0.54304687 6.59703125 -0.9375 7.625 C-1.50791016 9.12933594 -1.50791016 9.12933594 -2.08984375 10.6640625 C-2.39019531 11.43492188 -2.69054687 12.20578125 -3 13 C-3.33 13 -3.66 13 -4 13 C-4.63019694 4.80743982 -4.63019694 4.80743982 -2 1.4375 C-1.34 0.963125 -0.68 0.48875 0 0 Z " fill="#00CDD7" transform="translate(4,1228)"/>
</svg>
