<?xml version="1.0" standalone="no"?>
<!DOCTYPE svg PUBLIC "-//W3C//DTD SVG 20010904//EN"
 "http://www.w3.org/TR/2001/REC-SVG-20010904/DTD/svg10.dtd">
<svg version="1.0" xmlns="http://www.w3.org/2000/svg"
 width="1024.000000pt" height="1536.000000pt" viewBox="0 0 1024.000000 1536.000000"
 preserveAspectRatio="xMidYMid meet">

<g transform="translate(0.000000,1536.000000) scale(0.100000,-0.100000)"
fill="#000000" stroke="none">
<path d="M5060 14905 l0 -65 1220 0 1220 0 0 65 0 65 -1220 0 -1220 0 0 -65z
m2430 0 l0 -55 -1210 0 -1210 0 0 55 0 55 1210 0 1210 0 0 -55z"/>
<path d="M9890 14485 l0 -245 65 3 65 2 0 243 0 242 -65 0 -65 0 0 -245z m120
5 l-1 -230 -52 0 -52 0 1 223 c0 122 2 225 2 230 1 4 25 7 52 7 l50 0 0 -230z"/>
<path d="M2882 14105 l2 -65 753 0 753 0 0 65 0 65 -755 0 -756 0 3 -65z
m1488 0 l0 -55 -735 0 -735 0 0 54 0 55 735 0 735 1 0 -55z"/>
<path d="M5318 13640 l4 -70 1849 0 1849 0 0 70 0 70 -1852 0 -1853 0 3 -70z
m3682 0 c0 -58 -1 -60 -26 -60 -17 0 -23 4 -18 13 6 9 5 9 -8 -1 -12 -10 -381
-12 -1817 -11 l-1801 1 0 59 0 59 1835 0 1835 0 0 -60z"/>
<path d="M10 13643 c0 -5 407 -7 905 -5 l905 2 0 -55 0 -55 -905 0 c-597 0
-905 -3 -905 -10 0 -7 310 -10 910 -10 l910 0 0 70 0 70 -910 0 c-501 0 -910
-3 -910 -7z"/>
<path d="M2910 13574 l-45 -43 158 -158 157 -159 51 46 50 45 -161 158 c-89
86 -162 157 -163 156 -1 0 -22 -21 -47 -45z m206 -122 l147 -143 -40 -41 -41
-40 -108 110 c-60 61 -127 129 -148 151 l-40 41 34 35 c19 19 37 34 41 33 4
-2 73 -67 155 -146z"/>
<path d="M4258 13465 c-84 -81 -154 -150 -156 -154 -1 -4 18 -26 43 -51 l45
-44 77 74 c43 40 113 110 155 154 l78 81 -44 44 -44 44 -154 -148z m83 -88
c-126 -125 -153 -147 -163 -135 -7 8 -24 26 -37 41 l-25 27 34 35 c18 19 38
31 43 28 6 -3 7 -1 4 4 -4 6 44 59 105 117 l113 105 38 -37 38 -37 -150 -148z"/>
<path d="M9890 13218 l0 -113 65 0 65 0 0 113 0 112 -65 0 -65 0 0 -112z m115
-3 l0 -95 -52 0 -53 0 0 95 0 95 53 0 52 0 0 -95z"/>
<path d="M2320 12838 l0 -198 65 0 65 0 0 198 0 197 -65 0 -65 0 0 -197z m120
-3 l-1 -185 -50 0 -49 0 -1 125 c0 69 0 150 0 180 0 30 0 57 0 60 1 3 24 5 51
5 l50 0 0 -185z"/>
<path d="M4943 13032 c-23 -3 -23 -4 -23 -198 l0 -194 65 0 65 0 0 198 0 197
-42 0 c-24 0 -53 -1 -65 -3z m97 -197 l0 -185 -52 0 -53 0 0 185 0 185 53 0
52 0 0 -185z"/>
<path d="M8870 12760 c-111 -11 -212 -31 -329 -67 -352 -107 -623 -273 -932
-571 l-117 -112 -746 0 -746 0 0 -65 0 -65 690 0 690 0 -65 -79 c-112 -140
-282 -397 -349 -528 l-26 -53 -760 0 -760 0 0 -70 0 -70 720 0 c459 0 720 4
720 10 0 6 -256 9 -710 7 l-710 -2 0 58 0 57 750 0 749 0 16 23 c9 12 44 72
78 132 98 172 231 366 319 463 21 23 36 47 33 52 -4 6 -256 10 -688 10 l-682
0 0 55 0 55 744 0 743 0 112 110 c285 280 566 457 891 560 150 47 273 70 445
81 345 24 674 -42 975 -193 105 -53 154 -82 289 -173 17 -11 27 -15 23 -9 -12
19 -172 123 -268 174 -181 95 -378 161 -584 196 -111 18 -387 26 -515 14z"/>
<path d="M8935 12640 c-348 -27 -709 -174 -1013 -413 -545 -429 -975 -1109
-1221 -1927 -158 -528 -231 -1043 -231 -1634 0 -416 36 -786 106 -1095 37
-163 66 -277 90 -358 14 -49 34 -115 44 -149 53 -182 172 -484 267 -683 489
-1020 1265 -1650 2068 -1678 285 -10 537 47 810 185 128 64 395 246 381 259
-2 3 -33 -19 -68 -47 -196 -159 -502 -304 -753 -358 -106 -23 -143 -26 -315
-26 -223 0 -313 15 -529 86 -542 180 -1044 631 -1426 1281 -72 123 -220 428
-275 567 -192 479 -306 935 -366 1458 -35 303 -29 866 12 1226 114 998 487
1912 1026 2517 373 417 736 647 1178 746 93 21 151 26 305 30 234 7 341 -7
590 -73 16 -4 17 -3 5 5 -21 13 -158 47 -265 65 -106 18 -294 25 -420 16z"/>
<path d="M9660 12538 c267 -116 349 -161 488 -266 45 -35 82 -59 82 -55 0 12
-155 124 -251 182 -90 54 -303 151 -329 150 -8 0 -4 -5 10 -11z"/>
<path d="M4197 12372 l-48 -49 165 -157 c91 -86 168 -157 171 -157 3 0 27 18
52 41 l45 42 -109 107 c-59 58 -135 132 -168 164 l-61 57 -47 -48z m169 -83
c62 -62 111 -116 107 -122 -3 -6 -2 -7 4 -4 5 3 27 -12 49 -34 l39 -40 -39
-35 c-21 -19 -41 -34 -44 -34 -13 0 -311 304 -306 312 3 5 11 5 17 2 7 -4 9
-3 4 1 -6 7 39 65 51 65 2 0 55 -50 118 -111z"/>
<path d="M2955 12247 l-166 -160 42 -43 c24 -24 48 -44 54 -44 5 0 81 71 167
158 l157 157 -44 46 -43 46 -167 -160z m235 70 c0 -5 -68 -77 -150 -160 l-151
-150 -40 39 -40 39 156 154 155 155 35 -34 c19 -19 35 -38 35 -43z"/>
<path d="M8845 12151 c-293 -55 -551 -196 -807 -439 -388 -370 -711 -953 -893
-1613 -144 -522 -210 -1176 -175 -1749 68 -1126 433 -2064 1034 -2665 267
-267 569 -438 863 -490 100 -17 287 -20 383 -5 249 39 480 140 699 308 76 58
295 262 288 268 -2 2 -35 -27 -73 -64 -292 -289 -583 -450 -896 -496 -278 -42
-520 0 -783 134 -161 82 -297 182 -449 330 -250 244 -439 511 -611 865 -417
857 -554 1982 -374 3080 139 849 510 1628 998 2093 127 122 346 274 476 331
207 92 364 123 585 116 376 -12 695 -163 1023 -485 53 -52 97 -93 97 -89 0 3
-53 58 -118 121 -247 239 -528 396 -807 448 -113 21 -349 22 -460 1z"/>
<path d="M8972 12039 c-208 -20 -411 -94 -607 -223 -262 -172 -551 -510 -755
-885 -289 -530 -447 -1096 -514 -1836 -22 -235 -17 -697 10 -975 31 -315 111
-706 211 -1020 287 -908 867 -1600 1478 -1766 89 -24 118 -27 270 -28 186 -1
255 10 415 66 152 54 269 122 430 249 94 74 299 280 319 319 7 14 -11 -2 -40
-35 -152 -175 -355 -345 -522 -437 -102 -57 -246 -111 -357 -134 -104 -22
-354 -25 -445 -6 -384 83 -741 351 -1061 798 -242 336 -435 774 -558 1269
-110 440 -150 783 -150 1265 0 839 154 1541 475 2170 240 470 533 815 863
1015 196 119 376 175 592 182 229 9 386 -26 599 -132 176 -88 359 -237 536
-438 38 -42 69 -73 69 -68 0 23 -183 215 -293 307 -307 258 -635 374 -965 343z"/>
<path d="M2910 11580 l0 -69 765 0 765 0 0 69 0 69 -765 0 -765 0 0 -69z
m1511 35 c1 -8 2 -22 2 -30 0 -8 -1 -24 -2 -35 -1 -20 -8 -20 -751 -20 l-750
0 0 53 0 52 750 -3 c655 -2 750 -4 751 -17z"/>
<path d="M9055 11314 c-49 -25 -85 -65 -115 -130 -65 -134 -64 -295 2 -423 45
-89 94 -124 183 -129 55 -4 70 -1 108 21 48 29 84 76 113 152 30 78 27 269 -5
349 -27 68 -91 143 -138 162 -43 19 -111 18 -148 -2z m160 -17 c52 -29 97 -90
121 -163 28 -86 26 -258 -4 -334 -43 -108 -106 -160 -197 -160 -113 0 -200 95
-223 245 -44 277 128 511 303 412z"/>
<path d="M9077 11190 c-64 -51 -88 -232 -46 -344 23 -64 58 -96 103 -96 71 1
120 89 120 215 1 101 -18 167 -59 211 -38 40 -79 45 -118 14z m101 -10 c51
-48 76 -158 60 -271 -31 -232 -218 -179 -218 62 0 170 83 279 158 209z"/>
<path d="M3235 11146 c-353 -58 -604 -373 -582 -730 30 -499 557 -802 1012
-581 179 87 318 261 365 457 77 322 -72 643 -365 788 -138 69 -281 90 -430 66z
m303 -27 c442 -117 640 -640 392 -1033 -85 -135 -242 -249 -400 -292 -87 -23
-262 -24 -350 0 -200 52 -356 177 -443 356 -123 252 -94 528 77 740 174 215
448 302 724 229z"/>
<path d="M3265 11034 c-11 -2 -40 -10 -65 -16 -198 -49 -385 -246 -426 -447
-11 -60 -6 -196 11 -262 46 -180 197 -340 374 -399 199 -66 446 -12 590 128
191 187 239 448 125 678 -65 131 -204 251 -343 295 -64 20 -221 34 -266 23z
m206 -18 c293 -62 495 -353 446 -640 -20 -112 -71 -217 -145 -297 -71 -77
-138 -121 -239 -156 -107 -37 -264 -39 -365 -5 -163 56 -294 181 -355 339 -34
91 -43 248 -19 343 74 289 382 478 677 416z"/>
<path d="M6829 10994 c-57 -124 -146 -350 -185 -469 l-33 -100 -760 -3 -761
-2 0 -65 0 -65 741 0 c685 0 741 -1 735 -17 -16 -42 -87 -342 -111 -468 -14
-77 -28 -149 -30 -160 -4 -20 -13 -20 -722 -22 -395 -1 -744 -2 -775 -2 l-58
-1 0 -65 0 -65 766 0 766 0 -6 -42 c-11 -80 -35 -353 -42 -480 l-6 -128 -749
0 -749 0 0 -70 0 -70 750 0 750 0 0 -164 c0 -145 11 -356 24 -453 l5 -33 -750
0 -749 0 0 -70 0 -69 757 1 757 1 22 -144 c19 -121 76 -395 100 -476 l6 -23
-751 0 -751 0 0 -70 0 -70 760 0 c422 0 760 4 760 9 0 4 -335 8 -755 7 l-755
-1 0 58 0 57 744 0 c423 0 747 4 750 9 3 5 -12 85 -33 178 -22 94 -50 237 -62
319 -13 82 -28 152 -33 156 -6 4 -347 8 -757 8 l-747 0 2 53 2 52 739 3 c407
1 742 5 746 10 4 4 3 57 -2 117 -6 61 -14 207 -17 325 l-7 215 -748 3 -748 2
3 58 3 57 742 0 c408 0 744 2 746 5 3 3 10 91 17 195 6 105 18 244 26 310 8
66 14 130 14 142 l0 23 -765 0 -765 0 0 55 0 55 769 0 c603 0 771 3 778 13 5
6 15 46 22 87 20 120 58 294 95 439 19 74 33 138 30 143 -3 4 -336 8 -740 8
l-734 0 0 55 0 55 754 0 c591 0 756 3 764 13 5 6 22 50 36 95 33 107 125 340
182 461 24 52 42 96 39 99 -2 3 -23 -35 -46 -84z"/>
<path d="M115 10968 c318 -25 537 -166 655 -422 48 -104 65 -193 57 -310 -25
-376 -317 -633 -724 -639 -50 0 -89 -5 -87 -9 13 -21 235 3 344 38 109 34 194
88 285 179 61 61 89 99 118 158 106 217 103 443 -7 642 -53 96 -188 228 -281
276 -129 67 -266 100 -400 98 -63 -2 -58 -3 40 -11z"/>
<path d="M1745 10768 c-96 -94 -125 -129 -125 -148 1 -37 238 -283 268 -278
11 1 78 59 147 127 97 95 125 129 123 146 -2 12 -56 79 -122 149 -87 92 -125
126 -142 126 -17 0 -60 -36 -149 -122z m282 -9 c65 -66 119 -130 121 -141 3
-14 -30 -53 -114 -139 -65 -65 -127 -122 -137 -125 -15 -5 -46 20 -139 112
-65 66 -121 130 -125 143 -5 19 13 42 118 147 68 68 132 124 141 124 10 0 70
-54 135 -121z"/>
<path d="M1940 10695 c30 -33 58 -61 63 -63 17 -8 3 -29 -55 -83 l-63 -58 -57
57 c-32 31 -58 62 -58 68 0 7 14 24 30 38 17 14 43 40 57 58 15 18 -1 6 -35
-27 -34 -33 -62 -64 -62 -70 0 -6 29 -40 65 -75 l65 -64 65 64 c36 35 65 69
65 75 0 6 -30 40 -67 75 l-68 65 55 -60z"/>
<path d="M130 10840 c191 -11 301 -59 422 -181 70 -71 127 -171 147 -259 15
-66 13 -187 -4 -254 -43 -163 -168 -309 -322 -374 -89 -38 -163 -52 -267 -52
-55 0 -97 -3 -93 -6 12 -12 203 -4 259 11 148 38 276 126 353 243 207 312 73
702 -290 847 -62 25 -84 28 -200 31 l-130 2 125 -8z"/>
<path d="M4770 9749 c-380 -144 -676 -429 -801 -770 -48 -132 -69 -246 -79
-438 -13 -239 -49 -370 -152 -560 -72 -132 -184 -266 -287 -343 l-59 -45 25
-59 c14 -32 27 -61 29 -63 8 -8 123 87 196 162 227 233 378 587 378 889 0 101
16 229 40 323 26 101 103 261 168 345 63 83 220 234 297 287 104 70 323 171
339 156 3 -4 6 -4 6 -2 0 10 21 125 26 142 7 24 -6 22 -126 -24z m103 -31 c-8
-35 -17 -66 -21 -69 -4 -4 -25 -12 -47 -19 -125 -40 -279 -130 -399 -235 -195
-170 -312 -359 -366 -589 -18 -77 -23 -126 -35 -331 -3 -49 -10 -117 -16 -150
-26 -160 -123 -388 -223 -528 -91 -128 -289 -319 -314 -303 -5 3 -17 26 -27
51 l-17 47 23 16 c50 34 173 160 231 236 76 101 171 295 202 415 24 89 28 125
41 356 18 309 134 568 357 795 161 165 339 270 624 370 1 0 -5 -28 -13 -62z"/>
<path d="M1659 9594 l-46 -46 46 -43 46 -44 -45 -45 -44 -46 44 -45 44 -45 49
47 48 48 45 -49 44 -50 45 44 44 43 -32 38 c-18 20 -39 40 -47 44 -8 3 4 -13
28 -37 l42 -44 -33 -32 c-18 -18 -37 -32 -42 -32 -5 0 -29 19 -52 42 l-43 42
-44 -43 -44 -44 -30 21 c-54 39 -55 45 -12 87 22 22 40 44 40 51 0 6 -19 30
-42 52 l-41 41 43 39 44 40 38 -42 c21 -22 38 -36 38 -31 0 11 -71 85 -81 85
-2 0 -25 -21 -50 -46z"/>
<path d="M1840 9586 l-44 -51 47 44 47 45 25 -24 c13 -12 22 -27 19 -32 -3 -5
0 -7 8 -6 22 5 14 -19 -20 -56 -44 -49 -26 -46 23 4 l39 40 -49 45 c-26 25
-49 45 -49 44 -1 -1 -21 -24 -46 -53z"/>
<path d="M8302 9338 c-17 -17 -17 -1349 0 -1366 9 -9 130 -12 485 -12 457 0
473 1 483 19 6 13 10 242 10 673 0 575 -2 656 -16 676 l-15 22 -468 0 c-350 0
-470 -3 -479 -12z m960 -38 c12 -61 10 -1301 -3 -1316 -9 -12 -95 -14 -469
-14 -252 0 -465 3 -474 6 -14 6 -16 75 -16 679 0 529 3 674 13 679 6 2 221 4
477 3 l464 -2 8 -35z"/>
<path d="M8417 9232 c-16 -3 -17 -40 -17 -583 0 -456 3 -579 13 -580 6 0 176
0 377 1 270 1 366 4 372 13 10 16 7 1122 -3 1138 -6 10 -92 13 -366 13 -197 1
-366 0 -376 -2z m733 -582 l0 -570 -370 0 -370 0 0 570 0 570 370 0 370 0 0
-570z"/>
<path d="M9539 9348 c-1 -2 -3 -31 -4 -65 l-3 -63 109 0 109 0 0 -570 0 -570
-110 0 -111 0 4 -62 3 -63 326 -3 c226 -2 333 0 347 8 20 10 21 19 21 175 l0
165 -65 0 -65 0 0 -110 0 -110 -110 0 -110 0 -1 403 c0 221 0 493 0 604 0 118
-4 214 -10 232 l-11 31 -159 0 c-87 0 -160 -1 -160 -2z m319 -641 c2 -492 5
-629 15 -632 7 -3 61 -6 120 -8 81 -1 108 1 112 11 3 8 5 58 5 113 l0 99 55 0
55 0 0 -160 c0 -146 -2 -160 -17 -160 -19 -1 -230 -1 -490 0 l-163 0 0 51 0
51 93 -3 c50 -2 98 0 105 4 9 6 12 134 12 582 0 449 -3 574 -12 577 -7 2 -55
4 -105 3 l-93 -1 0 53 0 54 153 -3 152 -3 3 -628z"/>
<path d="M3163 9225 c-12 -9 -53 -71 -91 -138 -142 -250 -154 -288 -102 -314
17 -9 82 -13 215 -13 206 0 233 6 249 51 8 23 -5 53 -89 217 -110 212 -129
234 -182 197z m73 -19 c7 -6 53 -92 103 -191 96 -189 103 -217 57 -234 -11 -5
-112 -8 -224 -7 -223 1 -228 3 -217 61 7 36 171 337 203 372 23 25 53 25 78
-1z"/>
<path d="M3184 9042 c-17 -12 -94 -153 -88 -163 7 -13 181 -11 189 1 6 10 -55
133 -78 157 -7 7 -17 9 -23 5z m60 -85 c20 -38 36 -71 36 -73 0 -2 -40 -4 -90
-4 -49 0 -90 2 -90 5 0 4 34 63 77 134 18 28 20 26 67 -62z"/>
<path d="M1054 8979 c-92 -72 -348 -392 -496 -619 -53 -82 -173 -286 -213
-362 -23 -44 -11 -46 -185 24 -155 62 -169 66 -100 31 79 -41 250 -105 265
-99 7 2 36 47 64 100 162 300 410 650 608 855 106 110 117 111 196 30 196
-201 417 -505 602 -829 42 -74 80 -139 84 -143 20 -21 336 121 481 215 97 62
217 157 275 217 21 23 44 41 50 41 5 0 26 -13 46 -28 l37 -28 -47 -51 c-140
-155 -408 -325 -675 -429 -54 -21 -100 -43 -102 -49 -3 -6 19 -65 47 -131 133
-310 221 -658 245 -972 3 -51 11 -95 16 -98 4 -3 312 -5 683 -5 l675 1 0 -55
0 -55 -673 0 c-510 0 -676 -3 -685 -12 -7 -7 -12 -40 -12 -77 0 -59 -17 -192
-36 -291 -4 -19 -4 -32 0 -29 13 12 37 166 44 279 l7 115 683 0 682 0 0 68 0
67 -684 0 -683 0 -7 103 c-20 293 -112 654 -242 956 -31 73 -55 133 -53 135 2
1 47 19 100 40 239 91 471 234 642 395 96 90 96 92 40 134 l-47 34 -100 -90
c-162 -144 -383 -278 -596 -360 -112 -43 -97 -51 -175 90 -91 164 -279 447
-397 598 -120 154 -276 315 -304 315 -12 0 -39 -14 -60 -31z"/>
<path d="M1033 8793 c-90 -102 -162 -193 -261 -331 -131 -182 -322 -499 -322
-535 0 -17 165 -59 327 -82 129 -19 388 -28 488 -18 64 6 34 8 -145 9 -241 1
-356 14 -552 60 -60 14 -108 30 -108 35 0 17 129 238 217 373 109 168 263 368
397 521 l35 40 36 -40 c192 -218 379 -480 544 -764 53 -92 69 -126 59 -132
-20 -13 -175 -49 -294 -69 -60 -10 -95 -18 -77 -19 52 -2 374 67 391 84 14 14
-184 343 -324 539 -136 189 -311 404 -330 405 -7 1 -43 -34 -81 -76z"/>
<path d="M0 7955 c0 -7 86 -43 181 -76 l87 -31 -36 -81 c-60 -139 -121 -307
-152 -417 -39 -142 -72 -308 -67 -339 4 -26 4 -26 6 2 2 57 64 315 102 430 45
138 100 280 136 350 30 60 27 65 -72 97 -38 13 -94 34 -123 47 -54 24 -62 26
-62 18z"/>
<path d="M1686 7789 c-353 -94 -739 -98 -1123 -13 -194 44 -173 48 -215 -43
-68 -146 -135 -333 -173 -480 -66 -263 -107 -602 -72 -603 6 -1 464 -1 1017
-2 l1005 0 3 53 c6 90 -27 324 -69 494 -66 263 -209 626 -246 624 -10 -1 -67
-14 -127 -30z m202 -121 c129 -308 210 -630 229 -910 l6 -98 -1013 0 -1013 0
6 94 c20 295 119 683 247 961 21 47 44 85 50 85 7 0 46 -9 88 -19 244 -62 554
-91 782 -71 157 13 366 48 470 79 36 11 70 20 77 20 6 1 38 -63 71 -141z"/>
<path d="M6552 7130 c3 -8 31 -93 62 -188 32 -96 84 -239 116 -318 l58 -144
-729 0 -729 0 0 -70 0 -70 760 0 760 0 46 -92 c70 -140 127 -238 233 -398 53
-80 97 -147 98 -150 2 -3 -310 -4 -692 -2 l-695 2 0 -70 0 -70 748 0 c738 0
747 0 760 -20 44 -71 268 -302 405 -418 91 -77 264 -202 280 -202 6 0 -30 28
-79 62 -190 131 -374 299 -530 483 l-89 105 -743 0 -743 0 3 58 3 57 687 0
c378 1 690 4 693 7 4 3 -29 59 -72 125 -121 181 -198 312 -272 466 -18 37 -35
67 -39 68 -4 0 -342 2 -752 3 l-745 3 -3 56 -3 57 727 0 c577 0 725 3 721 13
-3 6 -28 71 -57 142 -29 72 -80 214 -114 318 -35 103 -67 191 -71 195 -5 4 -6
0 -3 -8z"/>
<path d="M9142 6607 c-102 -38 -182 -184 -182 -332 1 -326 290 -466 420 -202
71 146 61 315 -27 448 -47 71 -144 111 -211 86z m146 -37 c80 -58 126 -166
126 -295 0 -265 -198 -420 -346 -270 -114 115 -126 374 -25 507 49 64 90 88
152 88 42 0 60 -6 93 -30z"/>
<path d="M9141 6475 c-41 -35 -66 -112 -66 -205 0 -64 5 -85 30 -135 18 -35
41 -66 57 -75 43 -23 89 4 123 74 52 106 32 283 -38 342 -37 31 -68 30 -106
-1z m90 5 c10 -6 29 -30 41 -53 20 -36 23 -57 23 -152 0 -98 -3 -114 -24 -148
-50 -81 -107 -82 -152 -4 -19 34 -24 60 -27 138 -4 82 -1 102 18 148 32 73 72
97 121 71z"/>
<path d="M93 6528 c-16 -21 10 -312 44 -486 9 -45 18 -81 20 -78 3 2 -2 42
-11 88 -17 93 -44 321 -47 413 l-3 60 1018 3 1019 2 -7 -87 c-6 -81 -20 -183
-32 -243 -4 -20 -3 -22 5 -9 14 21 43 248 39 302 l-3 42 -1016 3 c-806 2
-1018 -1 -1026 -10z"/>
<path d="M3829 6279 c-68 -44 -173 -105 -234 -135 -60 -30 -102 -54 -92 -54
26 0 175 81 314 171 130 85 169 97 201 66 22 -23 19 -945 -4 -1101 -53 -363
-216 -631 -524 -862 -52 -39 -196 -160 -320 -268 -124 -109 -239 -204 -256
-213 -19 -9 -42 -13 -57 -9 -14 3 -128 88 -253 188 -125 101 -266 212 -313
247 -99 74 -245 219 -315 312 -59 79 -138 211 -167 281 -38 92 -39 92 -110
-13 -153 -230 -329 -449 -507 -632 -42 -43 -69 -75 -61 -72 8 3 57 52 110 108
180 194 321 371 453 569 l71 107 43 -91 c99 -212 257 -402 482 -579 69 -54
215 -170 324 -258 109 -88 209 -165 222 -171 39 -21 85 -4 155 58 271 237 425
368 513 434 309 233 471 506 526 883 17 112 25 1014 10 1059 -10 31 -43 56
-74 56 -7 0 -68 -36 -137 -81z"/>
<path d="M1729 6338 c-38 -31 -39 -46 -39 -497 0 -243 3 -441 8 -441 4 0 6
197 5 437 -3 474 -3 478 50 496 24 8 36 4 80 -24 47 -29 122 -75 215 -131 17
-11 32 -16 32 -11 0 4 -21 19 -47 33 -27 14 -88 51 -137 83 -93 61 -140 76
-167 55z"/>
<path d="M3835 6145 c-52 -37 -168 -100 -275 -149 -70 -32 -185 -66 -308 -93
-115 -24 -147 -27 -344 -27 -120 -1 -218 -4 -218 -8 0 -8 122 -11 290 -8 154
2 385 50 555 114 135 51 426 222 368 215 -5 0 -35 -20 -68 -44z"/>
<path d="M1812 5737 c-2 -417 -1 -456 18 -549 33 -160 92 -297 192 -446 64
-94 222 -259 323 -336 44 -33 139 -108 210 -166 279 -226 317 -254 330 -244 7
5 97 83 200 174 103 91 219 189 259 218 336 253 485 463 559 792 20 89 21 124
22 550 l1 455 -6 -455 c-6 -418 -9 -462 -29 -545 -47 -197 -106 -332 -197
-452 -62 -81 -206 -222 -292 -286 -80 -59 -145 -113 -321 -267 -85 -74 -167
-145 -182 -158 l-29 -23 -252 202 c-139 112 -284 228 -322 258 -187 151 -352
385 -420 597 -49 154 -49 150 -56 649 l-6 480 -2 -448z"/>
<path d="M1830 6176 c0 -9 174 -109 257 -148 168 -78 469 -161 566 -157 l32 2
-30 4 c-149 19 -352 71 -470 120 -87 36 -253 121 -302 154 -40 28 -53 34 -53
25z"/>
<path d="M11 6133 c-4 -105 99 -489 190 -707 28 -65 49 -119 47 -120 -2 -2
-37 -15 -78 -30 -62 -22 -198 -88 -150 -72 32 10 232 94 237 100 3 3 -15 54
-40 113 -94 224 -174 509 -200 718 l-4 30 -2 -32z"/>
<path d="M2260 6088 c215 -79 365 -103 635 -103 189 1 234 4 320 23 109 24
269 71 263 77 -2 2 -46 -9 -98 -25 -178 -52 -275 -65 -500 -65 -234 1 -353 18
-545 79 -120 39 -163 47 -75 14z"/>
<path d="M160 5939 c0 -74 163 -541 205 -587 10 -11 31 -7 116 18 213 63 500
98 719 86 133 -7 349 -37 439 -61 30 -8 50 -10 44 -4 -15 15 -243 56 -383 70
-271 26 -631 -14 -878 -97 -23 -8 -44 -14 -46 -14 -7 0 -88 192 -117 278 -16
48 -44 139 -60 202 -31 114 -39 137 -39 109z"/>
<path d="M3047 5202 l-167 -167 -79 79 -80 80 -45 -40 c-24 -21 -45 -42 -45
-45 -1 -8 217 -217 238 -228 33 -18 64 8 304 255 l137 140 -48 47 -47 47 -168
-168z m237 79 c5 -10 -57 -78 -181 -203 -147 -147 -193 -188 -213 -187 -18 0
-57 30 -138 107 l-112 108 38 37 38 37 81 -75 c45 -41 85 -75 89 -75 5 0 79
73 166 161 l157 162 35 -29 c19 -16 37 -35 40 -43z"/>
<path d="M825 5334 c-96 -11 -380 -76 -394 -89 -9 -9 24 -5 74 11 171 52 326
75 565 83 l195 8 -165 0 c-91 1 -214 -5 -275 -13z"/>
<path d="M1270 5341 c0 -6 15 -11 33 -11 47 0 209 -27 309 -51 l86 -21 10 -56
c12 -66 16 -56 -86 -212 -129 -198 -311 -433 -465 -600 -69 -74 -49 -82 -201
90 -173 196 -344 436 -475 665 -28 50 -51 85 -51 79 0 -29 173 -307 299 -479
123 -168 345 -425 367 -425 34 0 347 382 498 610 136 203 136 203 126 267 -11
67 -13 70 -58 83 -54 15 -227 47 -297 55 -33 3 -68 8 -77 11 -10 3 -18 1 -18
-5z"/>
<path d="M190 5156 c-115 -47 -194 -85 -188 -91 2 -2 33 10 68 27 72 34 241
101 244 96 1 -2 15 -28 31 -58 114 -216 290 -471 470 -679 157 -183 245 -271
269 -270 21 1 21 1 -1 7 -26 8 -194 187 -317 337 -154 187 -294 395 -405 598
-24 42 -48 77 -54 77 -7 -1 -59 -20 -117 -44z"/>
<path d="M10120 4914 c-140 -95 -367 -207 -490 -242 -19 -6 -68 -20 -108 -31
-39 -12 -118 -28 -175 -36 -351 -49 -657 -2 -999 154 l-68 31 -765 0 -765 0 0
55 0 55 643 3 642 2 -650 3 -650 2 0 -65 0 -65 769 0 769 0 126 -54 c241 -103
449 -148 686 -149 302 -1 601 75 865 221 73 40 280 172 280 178 0 10 -21 -2
-110 -62z"/>
<path d="M5302 4917 l-42 -43 38 -37 c51 -50 66 -47 17 3 l-39 40 34 35 34 35
41 -40 c22 -22 44 -40 49 -40 5 0 25 19 46 43 l39 42 38 -37 37 -38 -44 -46
c-25 -26 -36 -42 -25 -36 11 6 35 26 52 44 l33 34 -45 44 -45 44 -45 -44 -45
-44 -43 42 -43 42 -42 -43z"/>
<path d="M5305 4740 l-48 -49 44 -41 44 -40 45 45 45 45 47 -47 48 -47 42 42
43 42 -50 48 -50 47 45 -47 44 -48 -40 -34 -39 -34 -47 45 -47 46 -41 -42
c-22 -22 -44 -41 -47 -41 -4 0 -21 14 -39 31 l-32 31 44 44 c39 40 50 54 41
54 -1 0 -25 -22 -52 -50z"/>
<path d="M4015 3936 c-13 -20 -15 -51 -13 -180 l3 -156 -1472 0 -1473 0 0 -65
0 -65 1473 0 1472 0 -3 -200 c-2 -129 1 -207 8 -220 11 -20 20 -20 798 -20
600 0 791 3 800 12 9 9 12 72 12 220 l0 208 550 0 550 0 0 -199 c0 -179 2
-201 19 -222 l18 -23 704 2 c387 1 736 1 776 2 108 0 105 -7 101 236 l-3 204
561 0 c334 0 583 -4 615 -10 170 -32 341 -190 384 -355 64 -250 -91 -504 -365
-598 -65 -22 -66 -22 -865 -22 -799 -1 -800 -1 -880 -24 -241 -68 -420 -251
-484 -495 -12 -44 -20 -103 -20 -130 1 -47 2 -45 10 22 33 285 215 506 484
590 43 14 165 17 875 22 l825 6 72 26 c96 35 167 82 236 157 93 102 137 205
137 327 0 184 -110 353 -290 444 -97 49 -130 51 -740 48 l-565 -3 -5 -215 -5
-215 -783 -3 -782 -2 -10 26 c-6 14 -10 113 -10 220 l0 194 -557 -2 -558 -3
-3 -204 c-1 -130 -6 -209 -13 -218 -9 -11 -155 -13 -790 -13 -517 0 -780 3
-784 10 -4 6 -6 102 -6 215 0 112 -3 207 -8 210 -5 3 -666 5 -1470 5 -1375 0
-1460 1 -1464 18 -3 9 -5 34 -6 54 l0 38 1472 2 1472 3 3 170 c2 120 6 171 15
177 6 4 359 8 782 8 587 0 774 -3 783 -12 8 -8 12 -60 12 -169 0 -87 3 -164 6
-173 6 -14 64 -16 554 -16 427 0 550 3 558 13 6 7 10 76 10 175 0 89 2 166 6
170 12 12 1535 13 1557 1 17 -9 19 -23 19 -173 0 -126 3 -166 14 -175 9 -8
175 -11 592 -11 644 0 636 1 774 -68 93 -46 211 -160 257 -247 66 -126 86
-263 59 -389 -53 -237 -230 -419 -472 -487 -78 -23 -84 -23 -884 -24 -788 -1
-806 -1 -860 -22 -108 -40 -165 -76 -235 -147 -282 -286 -205 -774 148 -949
145 -71 62 -67 1362 -65 l1170 3 -1190 5 c-1318 6 -1213 0 -1348 72 -220 117
-341 375 -293 623 41 209 179 372 372 440 l69 25 784 0 c761 0 786 1 875 21
242 56 417 209 492 431 89 261 -13 536 -256 693 -155 100 -194 105 -864 105
l-546 0 -1 83 c0 45 0 117 1 159 2 131 90 118 -810 118 -762 0 -770 0 -790
-20 -19 -19 -21 -32 -19 -182 l1 -161 -46 1 c-25 0 -273 1 -551 1 l-505 1 0
168 c0 117 -4 172 -12 180 -9 9 -199 12 -795 12 l-783 0 -15 -24z"/>
<path d="M4122 3838 c-14 -14 -16 -114 -3 -122 5 -4 9 20 8 54 l-2 60 67 0
c37 0 70 5 73 10 9 15 -128 13 -143 -2z"/>
<path d="M4388 3833 c-8 -10 -21 -33 -28 -52 -27 -67 -109 -135 -213 -176
l-38 -15 1 -87 c3 -106 6 -123 28 -123 33 0 121 -49 162 -90 23 -23 53 -66 67
-96 l25 -54 425 2 426 3 10 30 c26 80 111 158 209 193 l48 17 0 108 c0 94 -2
108 -17 114 -120 41 -205 110 -244 198 l-20 45 -413 0 c-381 0 -414 -1 -428
-17z m582 -2 l255 -1 29 -56 c16 -30 47 -71 70 -90 42 -36 133 -84 160 -84 14
0 16 -16 16 -104 l0 -104 -30 -7 c-40 -9 -139 -75 -174 -116 -16 -19 -38 -53
-48 -76 l-19 -43 -418 0 -418 0 -11 38 c-22 74 -139 179 -219 196 l-32 7 -3
96 -3 95 65 30 c79 35 142 95 180 168 l28 55 158 -2 c88 0 274 -2 414 -2z"/>
<path d="M5353 3842 c-20 -13 18 -64 73 -101 69 -45 79 -40 79 39 l0 65 -70 3
c-38 1 -75 -1 -82 -6z m147 -67 c0 -30 -2 -55 -4 -55 -29 0 -136 80 -136 101
0 5 32 9 70 9 l70 0 0 -55z"/>
<path d="M6842 3838 c-15 -15 -17 -122 -2 -113 6 3 10 28 10 56 l0 49 70 0
c64 0 70 -2 61 -17 -14 -27 -62 -69 -98 -87 -41 -21 -43 -28 -3 -14 39 13 122
96 118 117 -3 13 -18 17 -73 19 -46 2 -74 -1 -83 -10z"/>
<path d="M7118 3843 c-10 -2 -18 -12 -18 -22 0 -23 -50 -99 -91 -138 -29 -27
-101 -66 -162 -87 -16 -5 -17 -17 -15 -102 2 -74 7 -99 18 -105 8 -4 40 -19
70 -32 78 -33 122 -76 159 -152 l32 -65 419 0 420 0 25 50 c43 84 123 149 228
184 15 5 17 20 17 121 0 89 -3 115 -13 115 -8 0 -41 14 -74 30 -69 34 -133 98
-165 164 l-22 45 -405 -1 c-223 0 -414 -2 -423 -5z m832 -26 c0 -25 72 -118
118 -152 26 -19 68 -42 95 -51 l47 -16 0 -109 c0 -94 -2 -109 -16 -109 -9 0
-43 -14 -76 -32 -67 -36 -141 -112 -158 -163 l-12 -35 -416 0 -417 0 -24 55
c-38 88 -125 158 -236 190 -6 1 -9 40 -7 96 l3 95 61 23 c73 28 156 107 184
175 l19 46 418 0 c329 0 417 -3 417 -13z"/>
<path d="M8075 3840 c-4 -6 20 -10 64 -10 l71 0 2 -57 2 -58 3 53 c3 32 -1 59
-8 68 -13 16 -124 20 -134 4z"/>
<path d="M4243 3793 c-10 -14 -38 -39 -62 -55 -45 -28 -49 -38 -8 -17 28 14
76 59 88 82 15 27 1 20 -18 -10z"/>
<path d="M8076 3807 c9 -23 92 -87 113 -87 9 1 3 7 -14 17 -16 8 -47 32 -68
52 -22 21 -35 28 -31 18z"/>
<path d="M86 3279 c-42 -33 -76 -63 -76 -65 0 -7 7 -2 85 60 39 31 78 56 87
56 25 0 40 -28 96 -175 105 -277 163 -425 216 -558 31 -76 56 -145 56 -153 0
-20 3 -16 -290 -409 -217 -290 -295 -400 -248 -345 12 14 299 397 464 619 93
126 92 123 67 189 -126 336 -319 820 -331 830 -27 21 -47 14 -126 -49z"/>
<path d="M4121 3266 c-7 -8 -11 -37 -9 -68 l3 -53 74 -3 c42 -2 79 2 84 7 15
15 -39 80 -89 108 -46 27 -48 27 -63 9z m90 -37 c16 -11 36 -34 44 -50 l16
-29 -70 0 -69 0 -4 56 c-1 31 -1 57 1 59 5 6 52 -14 82 -36z"/>
<path d="M5452 3259 c-45 -23 -102 -81 -102 -105 0 -12 14 -14 78 -12 l77 3 3
52 c4 78 -4 87 -56 62z m48 -54 l0 -55 -70 0 c-42 0 -70 4 -70 10 0 22 99 100
128 100 8 0 12 -18 12 -55z"/>
<path d="M6844 3268 c-4 -6 -3 -9 2 -5 23 14 109 -47 135 -95 9 -17 4 -18 -63
-18 l-73 0 3 50 c2 27 0 50 -5 50 -5 0 -9 -24 -9 -52 l1 -53 83 -3 c99 -3 104
6 39 72 -47 46 -102 73 -113 54z"/>
<path d="M8137 3235 c-26 -20 -52 -46 -58 -58 -7 -14 4 -7 32 19 40 38 78 64
93 64 3 0 6 -25 6 -55 l0 -54 -72 -4 -73 -3 78 -2 78 -2 -3 62 c-4 77 -16 82
-81 33z"/>
<path d="M96 2887 c-43 -127 -80 -243 -82 -257 -3 -14 35 89 83 227 78 225
103 283 103 240 0 -22 230 -620 236 -614 2 1 -24 75 -58 162 -34 88 -87 230
-119 315 -31 85 -63 156 -71 157 -9 2 -38 -71 -92 -230z"/>
<path d="M24 3079 c-19 -22 -19 -22 3 -10 24 12 39 31 25 31 -5 0 -17 -10 -28
-21z"/>
<path d="M66 3079 c-3 -8 -17 -47 -31 -87 -15 -41 -25 -75 -23 -78 2 -2 18 36
36 84 17 47 29 88 27 91 -3 2 -7 -2 -9 -10z"/>
<path d="M3960 2500 l-486 -5 1 -52 0 -53 488 0 487 0 0 60 c0 33 -1 59 -2 58
-2 -2 -221 -5 -488 -8z m480 -55 l0 -45 -475 0 -475 0 0 45 0 45 475 0 475 0
0 -45z"/>
<path d="M5160 2445 l0 -55 485 0 485 0 0 55 0 55 -485 0 -485 0 0 -55z m960
0 l0 -45 -475 0 -475 0 0 45 0 45 475 0 475 0 0 -45z"/>
<path d="M222 2333 c-116 -76 -209 -139 -207 -141 2 -2 87 50 188 117 102 66
197 126 211 132 22 10 36 29 22 29 -2 0 -98 -62 -214 -137z"/>
<path d="M4655 2340 c-85 -19 -160 -69 -203 -133 -26 -38 -27 -48 -32 -189
l-5 -148 52 0 51 0 4 129 c3 113 6 133 24 158 21 28 89 73 112 73 9 0 12 -142
12 -675 l0 -675 50 0 50 0 0 701 c0 658 -2 719 -25 747 -8 10 -65 17 -90 12z
m92 -40 c9 -19 12 -183 10 -714 l-2 -690 -37 -4 -38 -3 0 671 c0 542 -3 672
-13 676 -16 6 -74 -19 -103 -44 -44 -38 -54 -74 -54 -197 l0 -115 -40 0 -40 0
0 128 c0 118 2 132 26 180 42 84 142 144 234 139 36 -2 47 -7 57 -27z"/>
<path d="M6293 2319 c-68 -26 -147 -98 -168 -152 -11 -29 -16 -81 -18 -170
l-2 -127 55 0 55 0 0 123 c0 149 12 177 95 220 30 16 44 25 30 21 -107 -29
-140 -88 -140 -249 l0 -105 -40 0 -40 0 0 123 c0 107 3 128 24 173 13 28 41
65 62 82 46 38 131 72 179 72 67 0 64 32 62 -740 l-2 -695 -37 -3 -38 -3 -3
668 -2 668 -3 -672 -2 -673 50 0 50 0 0 708 c0 798 4 752 -73 751 -23 0 -65
-9 -94 -20z"/>
<path d="M131 2149 c-121 -83 -141 -100 -101 -79 30 15 230 152 230 157 0 9
-25 -5 -129 -78z"/>
<path d="M3838 2118 c-53 -57 -100 -111 -103 -120 -9 -25 12 -57 42 -64 23 -6
34 1 85 55 l58 62 0 -211 0 -210 50 0 50 0 -2 208 -3 207 -2 -202 -3 -203 -40
0 -40 0 0 204 c0 113 -4 207 -9 210 -5 3 -34 -21 -65 -54 -30 -33 -62 -60 -69
-60 -16 0 -47 31 -47 48 0 19 201 222 220 222 10 0 65 -48 122 -106 111 -114
127 -146 74 -152 -23 -3 -38 6 -78 45 -27 26 -46 41 -43 33 13 -30 104 -100
123 -93 67 24 57 51 -65 174 -79 81 -113 109 -132 109 -18 0 -50 -26 -123
-102z"/>
<path d="M5638 2213 l-48 -4 0 -212 0 -212 -51 53 c-37 37 -58 52 -78 52 -32
0 -51 -16 -51 -45 0 -29 208 -235 237 -235 34 0 232 207 233 242 0 32 -30 53
-63 44 -23 -5 -128 -106 -111 -106 5 0 31 23 58 50 27 28 53 50 58 50 21 0 48
-22 48 -39 0 -10 -46 -66 -103 -126 -92 -96 -106 -107 -129 -102 -23 6 -207
191 -216 218 -6 16 19 39 42 39 13 0 42 -20 71 -50 32 -33 52 -46 60 -40 7 6
10 73 9 209 l-2 201 39 0 39 0 3 -207 2 -208 3 218 c1 119 1 216 0 215 -2 -1
-24 -3 -50 -5z"/>
<path d="M135 2044 c-70 -91 -125 -167 -122 -170 2 -2 12 8 22 23 10 15 57 78
105 138 94 121 134 175 127 175 -2 0 -61 -74 -132 -166z"/>
<path d="M3295 2183 c-32 -8 -84 -51 -100 -83 -21 -41 -19 -109 5 -145 18 -27
18 -31 3 -48 -10 -11 -18 -41 -21 -78 -4 -51 -1 -65 17 -90 l22 -30 -20 -26
c-26 -33 -28 -105 -3 -153 16 -33 16 -37 0 -70 -62 -123 54 -264 187 -229 45
12 115 77 114 105 0 14 -4 10 -14 -11 -17 -40 -45 -64 -92 -80 -130 -45 -249
94 -184 215 18 34 18 36 0 70 -25 45 -24 107 1 148 20 32 20 32 0 65 -27 43
-27 116 0 150 l21 26 -21 40 c-68 134 63 265 203 203 80 -36 106 -107 67 -188
-18 -37 -21 -50 -11 -63 31 -43 42 -82 32 -119 -6 -20 -17 -47 -26 -59 -14
-21 -11 -53 5 -53 14 0 32 -70 26 -101 -3 -16 -15 -42 -26 -57 -22 -30 -19
-56 8 -67 14 -5 13 -3 -2 13 -16 19 -16 21 9 57 33 49 33 100 0 149 l-25 37
23 30 c30 41 29 117 -1 159 l-22 30 20 37 c37 69 21 138 -44 188 -34 26 -108
40 -151 28z"/>
<path d="M4973 2171 c-84 -39 -119 -143 -73 -218 20 -33 20 -33 0 -65 -25 -42
-25 -103 0 -153 18 -35 18 -40 5 -55 -9 -10 -18 -40 -22 -68 -4 -40 -1 -59 16
-91 l21 -41 -20 -33 c-29 -46 -25 -95 10 -150 25 -40 37 -48 84 -62 63 -18
114 -10 160 26 27 21 56 68 56 91 0 7 -9 -6 -21 -29 -54 -109 -207 -116 -276
-13 -29 42 -30 98 -3 133 24 31 25 45 4 69 -26 28 -29 106 -5 151 19 38 19 39
0 80 -24 54 -24 93 0 139 20 36 20 36 0 74 -36 72 -17 146 54 198 43 32 124
28 172 -8 65 -50 80 -115 44 -189 l-22 -44 22 -30 c36 -48 38 -101 7 -146
l-26 -38 22 -32 c27 -38 31 -114 8 -144 -8 -10 -5 -8 8 5 30 31 29 88 -1 133
l-23 34 24 35 c19 28 23 44 19 83 -2 27 -13 61 -25 77 -21 28 -21 28 -1 66 69
136 -77 281 -218 215z"/>
<path d="M3302 2067 c-28 -29 -28 -49 0 -73 l21 -19 -18 28 c-16 25 -16 29 -1
52 10 15 26 25 40 25 25 0 56 -28 56 -52 0 -18 -28 -44 -55 -51 -18 -4 -18 -5
3 -6 27 -1 62 32 62 59 0 27 -35 60 -63 60 -13 0 -33 -10 -45 -23z"/>
<path d="M5060 2072 c44 -22 53 -62 18 -86 -12 -9 -18 -16 -12 -16 17 0 44 35
44 58 0 23 -43 62 -69 62 -9 0 0 -8 19 -18z"/>
<path d="M4988 2054 c-15 -32 6 -77 37 -81 17 -3 17 -1 -3 9 -31 16 -39 54
-17 78 11 12 13 20 6 20 -6 0 -17 -12 -23 -26z"/>
<path d="M3302 1857 c-12 -13 -22 -30 -22 -38 0 -22 29 -59 47 -59 11 0 8 6
-11 21 -30 24 -33 49 -8 72 25 22 55 21 76 -2 23 -25 17 -63 -11 -76 -13 -5
-23 -13 -23 -18 0 -10 42 12 52 27 24 35 -13 96 -57 96 -12 0 -31 -10 -43 -23z"/>
<path d="M5000 1850 c-11 -11 -20 -29 -20 -40 0 -50 79 -79 113 -42 55 61 -35
140 -93 82z m84 -6 c21 -21 20 -47 -3 -68 -26 -24 -62 -17 -80 16 -14 24 -14
28 3 47 23 25 58 27 80 5z"/>
<path d="M7284 1705 c8 -220 172 -467 378 -567 160 -78 51 -72 1388 -73 l1195
-1 -1190 6 c-1314 6 -1220 1 -1370 69 -218 99 -368 315 -396 571 l-8 75 3 -80z"/>
<path d="M3300 1640 c-24 -24 -25 -48 -4 -78 31 -45 114 -19 114 36 0 29 -34
62 -65 62 -14 0 -34 -9 -45 -20z m82 -7 c21 -18 24 -53 6 -71 -7 -7 -27 -12
-45 -12 -45 0 -64 37 -39 75 19 29 51 32 78 8z"/>
<path d="M5001 1634 c-12 -15 -21 -33 -21 -40 0 -24 39 -54 68 -54 56 0 81 61
42 100 -28 28 -64 25 -89 -6z m81 -1 c21 -18 24 -53 6 -71 -27 -27 -98 -2 -98
35 0 18 37 53 57 53 9 0 25 -7 35 -17z"/>
<path d="M5180 1473 c0 -7 4 -14 10 -18 5 -3 216 -6 470 -7 l460 -1 0 -39 0
-38 -452 -3 -453 -2 458 -3 457 -2 0 50 0 50 -463 0 c-347 0 -466 3 -475 12
-9 9 -12 9 -12 1z"/>
<path d="M3513 1454 c4 -4 214 -7 467 -7 l460 0 0 -38 0 -39 -467 -2 -468 -3
473 -5 472 -5 0 53 0 52 -472 0 c-259 0 -468 -3 -465 -6z"/>
<path d="M3304 1428 c-19 -23 -19 -23 2 -5 27 22 57 22 77 -1 22 -24 21 -50 0
-76 -18 -21 -18 -21 5 -2 29 25 29 70 0 90 -31 22 -62 20 -84 -6z"/>
<path d="M5006 1426 c-31 -31 -32 -45 -5 -80 37 -48 109 -25 109 35 0 33 -19
56 -52 64 -21 5 -33 1 -52 -19z m72 -2 c41 -29 19 -94 -33 -94 -24 0 -55 33
-55 57 0 15 39 53 55 53 6 0 21 -7 33 -16z"/>
<path d="M3280 1387 c0 -23 44 -67 67 -66 12 0 8 4 -10 11 -17 6 -35 23 -43
42 -8 19 -13 24 -14 13z"/>
<path d="M940 1125 l0 -65 775 0 775 0 0 65 0 65 -775 0 -775 0 0 -65z m1540
0 l0 -55 -760 0 -760 1 0 54 0 55 760 0 760 0 0 -55z"/>
<path d="M37 1133 l43 -4 0 -58 0 -57 -35 4 c-21 3 -35 0 -35 -7 0 -6 17 -11
40 -11 l40 0 0 70 0 70 -47 -2 -48 -1 42 -4z"/>
<path d="M3690 1010 l0 -130 50 0 50 0 0 130 0 130 -50 0 -50 0 0 -130z m90 1
l0 -119 -40 1 -40 1 0 118 0 118 40 0 40 0 0 -119z"/>
<path d="M5380 1010 l0 -130 55 0 55 0 0 130 0 130 -55 0 -55 0 0 -130z m100
5 c0 -63 -1 -115 -2 -116 -2 0 -22 -2 -45 -5 l-43 -6 0 121 0 121 45 0 45 0 0
-115z"/>
<path d="M10 500 c0 -6 138 -10 393 -10 215 0 1113 0 1994 0 1253 0 1603 -3
1606 -13 4 -9 6 -9 6 0 1 9 294 12 1269 12 l1267 1 -3 -54 -4 -54 -60 4 c-34
3 -65 7 -71 11 -6 3 -7 1 -3 -5 8 -13 -4 -15 -28 -6 -9 3 -13 10 -10 15 3 5 0
9 -5 9 -6 0 -11 -4 -11 -9 0 -4 -39 -9 -87 -10 -48 -1 -91 -5 -96 -8 -6 -3 -7
-1 -3 5 3 6 2 13 -4 17 -5 3 -10 0 -10 -7 0 -10 -20 -13 -83 -11 -45 0 -86 2
-92 3 -5 1 -14 1 -20 0 -5 -1 -122 -2 -260 -1 -165 0 -251 4 -253 11 -2 5 -11
10 -20 10 -15 0 -15 -2 -2 -10 14 -9 -68 -11 -679 -11 -137 0 -196 3 -201 12
-6 8 -9 8 -11 0 -5 -14 -469 -21 -469 -8 0 5 -5 5 -10 2 -18 -11 -672 -7 -684
5 -5 5 -15 10 -21 10 -5 0 -3 -5 5 -10 11 -7 7 -10 -20 -11 -19 -1 -39 0 -45
1 -5 1 -50 1 -100 -1 -209 -6 -225 -5 -226 11 0 10 -2 11 -6 3 -2 -7 -18 -13
-34 -13 -22 0 -28 4 -23 13 6 9 4 9 -8 -1 -17 -14 -41 -15 -255 -12 -79 1
-147 -1 -153 -5 -5 -3 -10 -2 -10 2 0 7 -43 9 -60 3 -12 -5 -232 0 -240 5 -5
3 -11 1 -14 -4 -3 -4 -24 -5 -46 -1 -21 4 -38 4 -36 1 2 -3 -7 -6 -20 -6 -15
0 -22 5 -19 13 3 8 -3 7 -19 -3 -21 -14 -24 -14 -29 0 -4 8 -14 15 -24 14 -16
0 -16 -1 2 -9 16 -7 10 -9 -25 -11 -64 -2 -110 -1 -148 4 -18 2 -34 1 -37 -2
-2 -4 -25 -6 -52 -5 -26 1 -82 2 -123 3 -41 0 -88 1 -105 2 -16 0 -34 1 -40 0
-5 0 -328 -1 -718 -2 -405 0 -709 -5 -713 -10 -3 -5 1341 -9 3275 -9 l3281 0
0 70 0 70 -3275 0 c-2177 0 -3275 -3 -3275 -10z"/>
<path d="M1223 465 c0 -8 3 -13 5 -10 3 3 12 -1 21 -7 10 -8 9 -4 -3 10 -23
26 -23 26 -23 7z"/>
<path d="M3250 475 c0 -7 30 -13 34 -7 3 4 -4 9 -15 9 -10 1 -19 0 -19 -2z"/>
<path d="M5111 464 c0 -11 3 -14 6 -6 3 7 2 16 -1 19 -3 4 -6 -2 -5 -13z"/>
<path d="M5285 470 c-3 -6 1 -7 9 -4 18 7 21 14 7 14 -6 0 -13 -4 -16 -10z"/>
<path d="M2966 453 c-6 -14 -5 -15 5 -6 7 7 10 15 7 18 -3 3 -9 -2 -12 -12z"/>
<path d="M1300 451 c0 -6 4 -13 10 -16 6 -3 7 1 4 9 -7 18 -14 21 -14 7z"/>
<path d="M4098 443 c7 -3 16 -2 19 1 4 3 -2 6 -13 5 -11 0 -14 -3 -6 -6z"/>
<path d="M3705 410 c3 -5 8 -10 11 -10 2 0 4 5 4 10 0 6 -5 10 -11 10 -5 0 -7
-4 -4 -10z"/>
<path d="M4590 410 c0 -5 5 -10 11 -10 5 0 7 5 4 10 -3 6 -8 10 -11 10 -2 0
-4 -4 -4 -10z"/>
<path d="M5997 409 c7 -7 15 -10 18 -7 3 3 -2 9 -12 12 -14 6 -15 5 -6 -5z"/>
<path d="M3638 403 c7 -3 16 -2 19 1 4 3 -2 6 -13 5 -11 0 -14 -3 -6 -6z"/>
<path d="M4195 400 c4 -6 11 -8 16 -5 14 9 11 15 -7 15 -8 0 -12 -5 -9 -10z"/>
<path d="M4405 400 c3 -5 8 -10 11 -10 2 0 4 5 4 10 0 6 -5 10 -11 10 -5 0 -7
-4 -4 -10z"/>
<path d="M4978 403 c7 -3 16 -2 19 1 4 3 -2 6 -13 5 -11 0 -14 -3 -6 -6z"/>
</g>
</svg>
